0
SECTION
2
HEADER
9
$INSUNITS
70
4
9
$ACADVER
1
AC1014
9
$HANDSEED
5
FFFF
0
ENDSEC
0
SECTION
2
TABLES
0
TABLE
2
VPORT
5
8
100
AcDbSymbolTable
0
ENDTAB
0
TABLE
2
LTYPE
5
5
100
AcDbSymbolTable
0
LTYPE
5
14
100
AcDbSymbolTableRecord
100
AcDbLinetypeTableRecord
2
BYBLOCK
70
0
0
LTYPE
5
15
100
AcDbSymbolTableRecord
100
AcDbLinetypeTableRecord
2
BYLAYER
70
0
0
LTYPE
5
16
100
AcDbSymbolTableRecord
100
AcDbLinetypeTableRecord
2
DASHED
70
0
3
Dashed __ __ __ __ __ __ __ __ __ __ __ __ __ _
72
65
73
2
40
0.75
49
0.5
74
0
49
-0.25
74
0
0
ENDTAB
0
TABLE
2
LAYER
5
2
100
AcDbSymbolTable
70
2
0
LAYER
5
50
100
AcDbSymbolTableRecord
100
AcDbLayerTableRecord
2
0
70
0
62
7
6
CONTINUOUS
0
ENDTAB
0
TABLE
2
STYLE
5
3
100
AcDbSymbolTable
70
1
0
STYLE
5
11
100
AcDbSymbolTableRecord
100
AcDbTextStyleTableRecord
2
STANDARD
70
0
0
ENDTAB
0
TABLE
2
VIEW
5
6
100
AcDbSymbolTable
70
0
0
ENDTAB
0
TABLE
2
UCS
5
7
100
AcDbSymbolTable
70
0
0
ENDTAB
0
TABLE
2
APPID
5
9
100
AcDbSymbolTable
70
2
0
APPID
5
12
100
AcDbSymbolTableRecord
100
AcDbRegAppTableRecord
2
ACAD
70
0
0
ENDTAB
0
TABLE
2
DIMSTYLE
5
A
100
AcDbSymbolTable
70
1
0
ENDTAB
0
TABLE
2
BLOCK_RECORD
5
1
100
AcDbSymbolTable
70
1
0
BLOCK_RECORD
5
1F
100
AcDbSymbolTableRecord
100
AcDbBlockTableRecord
2
*MODEL_SPACE
0
BLOCK_RECORD
5
1B
100
AcDbSymbolTableRecord
100
AcDbBlockTableRecord
2
*PAPER_SPACE
0
ENDTAB
0
ENDSEC
0
SECTION
2
BLOCKS
0
BLOCK
5
20
100
AcDbEntity
100
AcDbBlockBegin
2
*MODEL_SPACE
0
ENDBLK
5
21
100
AcDbEntity
100
AcDbBlockEnd
0
BLOCK
5
1C
100
AcDbEntity
100
AcDbBlockBegin
2
*PAPER_SPACE
0
ENDBLK
5
1D
100
AcDbEntity
100
AcDbBlockEnd
0
ENDSEC
0
SECTION
2
ENTITIES
0
POINT
5
100
100
AcDbEntity
8
0
100
AcDbPoint
10
-463.05084486177009
20
-38.287118195525032
30
0
0
POINT
5
101
100
AcDbEntity
8
0
100
AcDbPoint
10
-533.05084486176975
20
-38.287118195525039
30
0
0
LINE
5
102
100
AcDbEntity
8
0
100
AcDbLine
10
-649.79611241613975
20
-90.841028606115316
30
0
11
-607.79611241613975
21
-90.841028606115316
31
0
0
LINE
5
103
100
AcDbEntity
8
0
100
AcDbLine
10
-593.79611241613975
20
-76.84102860611533
30
0
11
-593.79611241613975
21
-13.841028606115328
31
0
0
LINE
5
104
100
AcDbEntity
8
0
100
AcDbLine
10
-663.79611241613975
20
-13.841028606115328
30
0
11
-663.79611241613975
21
-76.84102860611533
31
0
0
ARC
5
105
100
AcDbEntity
8
0
100
AcDbCircle
10
-649.79611241613975
20
-76.841028606115344
30
0
40
13.999999999999915
210
0
220
0
230
1
100
AcDbArc
50
180
51
270
0
ARC
5
106
100
AcDbEntity
8
0
100
AcDbCircle
10
-607.79611241613975
20
-76.841028606115344
30
0
40
13.999999999999968
210
0
220
0
230
1
100
AcDbArc
50
-90
51
0
0
LINE
5
107
100
AcDbEntity
8
0
100
AcDbLine
10
-607.79611241613975
20
56.15897139388467
30
0
11
-649.79611241613975
21
56.158971393884684
31
0
0
ARC
5
108
100
AcDbEntity
8
0
100
AcDbCircle
10
-649.79611241613964
20
42.15897139388467
30
0
40
14.000000000000012
210
0
220
0
230
1
100
AcDbArc
50
90.000000000000469
51
180
0
ARC
5
109
100
AcDbEntity
8
0
100
AcDbCircle
10
-607.79611241613975
20
42.158971393884677
30
0
40
13.999999999999986
210
-0
220
0
230
1
100
AcDbArc
50
0
51
90
0
LINE
5
110
100
AcDbEntity
8
0
100
AcDbLine
10
-642.79611262475601
20
-20.141028699992646
30
0
11
-663.79611241613975
21
-20.141028699992646
31
0
0
LINE
5
111
100
AcDbEntity
8
0
100
AcDbLine
10
-593.7961120510613
20
28.141471967579371
30
0
11
-590.31361205106134
21
28.141471967579371
31
0
0
LINE
5
112
100
AcDbEntity
8
0
100
AcDbLine
10
-590.31361205106134
20
28.141471967579371
30
0
11
-590.31361205106134
21
24.658971967579376
31
0
0
LINE
5
113
100
AcDbEntity
8
0
100
AcDbLine
10
-590.31361205106134
20
24.658971967579376
30
0
11
-590.31361205106134
21
21.176471967579378
31
0
0
LINE
5
114
100
AcDbEntity
8
0
100
AcDbLine
10
-590.31361205106134
20
21.176471967579378
30
0
11
-593.7961120510613
21
21.176471967579378
31
0
0
LINE
5
115
100
AcDbEntity
8
0
100
AcDbLine
10
-593.79400054114956
20
40.393377900922616
30
0
11
-593.79611237015581
21
40.393377900922616
31
0
0
LINE
5
116
100
AcDbEntity
8
0
100
AcDbLine
10
-593.79400054114956
20
40.393377900922616
30
0
11
-590.31150054114948
21
40.393377900922623
31
0
0
LINE
5
117
100
AcDbEntity
8
0
100
AcDbLine
10
-593.79611218875607
20
33.428377900922619
30
0
11
-593.79400054114956
21
33.428377900922619
31
0
0
LINE
5
118
100
AcDbEntity
8
0
100
AcDbLine
10
-590.31150054114948
20
33.428377900922627
30
0
11
-593.79400054114956
21
33.428377900922619
31
0
0
LINE
5
119
100
AcDbEntity
8
0
100
AcDbLine
10
-590.31150054114948
20
40.393377900922623
30
0
11
-590.31150054114948
21
36.910877900922628
31
0
0
LINE
5
120
100
AcDbEntity
8
0
100
AcDbLine
10
-590.31150054114948
20
36.910877900922628
30
0
11
-590.31150054114948
21
33.428377900922627
31
0
0
LINE
5
121
100
AcDbEntity
8
0
100
AcDbLine
10
-593.79598952096262
20
15.891381021791018
30
0
11
-590.31348952096255
21
15.891381021791027
31
0
0
LINE
5
122
100
AcDbEntity
8
0
100
AcDbLine
10
-590.31348952096255
20
15.891381021791027
30
0
11
-590.31348952096255
21
12.408881021791029
31
0
0
LINE
5
123
100
AcDbEntity
8
0
100
AcDbLine
10
-593.79598952096262
20
15.891381021791018
30
0
11
-593.79611241613975
21
15.891381021791018
31
0
0
LINE
5
124
100
AcDbEntity
8
0
100
AcDbLine
10
-593.79611241613975
20
8.9263810217910322
30
0
11
-593.79598952096262
21
8.9263810217910322
31
0
0
LINE
5
125
100
AcDbEntity
8
0
100
AcDbLine
10
-590.31348952096255
20
8.9263810217910322
30
0
11
-593.79598952096262
21
8.9263810217910322
31
0
0
LINE
5
126
100
AcDbEntity
8
0
100
AcDbLine
10
-590.31348952096255
20
12.408881021791029
30
0
11
-590.31348952096255
21
8.9263810217910322
31
0
0
LINE
5
127
100
AcDbEntity
8
0
100
AcDbLine
10
-590.31357107078645
20
-3.3234562101928322
30
0
11
-593.79607107078652
21
-3.3234562101928389
31
0
0
LINE
5
128
100
AcDbEntity
8
0
100
AcDbLine
10
-590.31357107078645
20
3.6415437898071112
30
0
11
-590.31357107078645
21
0.15904378980716505
31
0
0
LINE
5
129
100
AcDbEntity
8
0
100
AcDbLine
10
-593.79607107078652
20
3.6415437898071423
30
0
11
-593.79611241613975
21
3.6415437898071468
31
0
0
LINE
5
130
100
AcDbEntity
8
0
100
AcDbLine
10
-590.31357107078645
20
0.15904378980716505
30
0
11
-590.31357107078645
21
-3.3234562101928322
31
0
0
LINE
5
131
100
AcDbEntity
8
0
100
AcDbLine
10
-593.79611241613975
20
-3.3234562101928367
30
0
11
-593.79607107078652
21
-3.3234562101928389
31
0
0
LINE
5
132
100
AcDbEntity
8
0
100
AcDbLine
10
-593.79607107078652
20
3.6415437898071423
30
0
11
-590.31357107078645
21
3.6415437898071112
31
0
0
LINE
5
133
100
AcDbEntity
8
0
100
AcDbLine
10
-667.27866164453758
20
3.6414357290993826
30
0
11
-667.27866164453758
21
0.15893572909938536
31
0
0
LINE
5
134
100
AcDbEntity
8
0
100
AcDbLine
10
-663.79611241613975
20
-3.3235642709005986
30
0
11
-663.79616164453751
21
-3.3235642709005986
31
0
0
LINE
5
135
100
AcDbEntity
8
0
100
AcDbLine
10
-667.27866164453758
20
0.15893572909938536
30
0
11
-667.27866164453758
21
-3.3235642709006141
31
0
0
LINE
5
136
100
AcDbEntity
8
0
100
AcDbLine
10
-667.27866164453758
20
-3.3235642709006141
30
0
11
-663.79616164453751
21
-3.3235642709005986
31
0
0
LINE
5
137
100
AcDbEntity
8
0
100
AcDbLine
10
-663.79616164453762
20
3.6414357290994004
30
0
11
-663.79611241613975
21
3.6414357290994004
31
0
0
LINE
5
138
100
AcDbEntity
8
0
100
AcDbLine
10
-663.79616164453762
20
3.6414357290994004
30
0
11
-667.27866164453758
21
3.6414357290993826
31
0
0
LINE
5
139
100
AcDbEntity
8
0
100
AcDbLine
10
-667.27866722183239
20
12.425216384302074
30
0
11
-667.27866722183239
21
8.9427163843020772
31
0
0
LINE
5
140
100
AcDbEntity
8
0
100
AcDbLine
10
-663.79616722183243
20
15.907716384302081
30
0
11
-663.79611241613975
21
15.907716384302081
31
0
0
LINE
5
141
100
AcDbEntity
8
0
100
AcDbLine
10
-667.27866722183239
20
15.907716384302063
30
0
11
-667.27866722183239
21
12.425216384302074
31
0
0
LINE
5
142
100
AcDbEntity
8
0
100
AcDbLine
10
-663.79616722183243
20
15.907716384302081
30
0
11
-667.27866722183239
21
15.907716384302063
31
0
0
LINE
5
143
100
AcDbEntity
8
0
100
AcDbLine
10
-667.27866722183239
20
8.9427163843020772
30
0
11
-663.79616722183243
21
8.9427163843020843
31
0
0
LINE
5
144
100
AcDbEntity
8
0
100
AcDbLine
10
-663.79611241613975
20
8.9427163843020843
30
0
11
-663.79616722183243
21
8.9427163843020843
31
0
0
LINE
5
145
100
AcDbEntity
8
0
100
AcDbLine
10
-663.79619397243573
20
28.134560598133103
30
0
11
-667.2786939724358
21
28.134560598133103
31
0
0
LINE
5
146
100
AcDbEntity
8
0
100
AcDbLine
10
-667.2786939724358
20
24.652060598133083
30
0
11
-667.2786939724358
21
21.169560598133078
31
0
0
LINE
5
147
100
AcDbEntity
8
0
100
AcDbLine
10
-667.2786939724358
20
21.169560598133078
30
0
11
-663.79619397243584
21
21.169560598133074
31
0
0
LINE
5
148
100
AcDbEntity
8
0
100
AcDbLine
10
-667.2786939724358
20
28.134560598133103
30
0
11
-667.2786939724358
21
24.652060598133083
31
0
0
LINE
5
149
100
AcDbEntity
8
0
100
AcDbLine
10
-663.79611241613975
20
21.169560598133074
30
0
11
-663.79619397243584
21
21.169560598133074
31
0
0
LINE
5
150
100
AcDbEntity
8
0
100
AcDbLine
10
-663.79619397243573
20
28.134560598133103
30
0
11
-663.79611241613975
21
28.134560598133103
31
0
0
LINE
5
151
100
AcDbEntity
8
0
100
AcDbLine
10
-667.27856923863919
20
36.908914749602218
30
0
11
-667.27856923863919
21
33.426414749602216
31
0
0
LINE
5
152
100
AcDbEntity
8
0
100
AcDbLine
10
-667.27856923863919
20
40.391414749602241
30
0
11
-667.27856923863919
21
36.908914749602218
31
0
0
LINE
5
153
100
AcDbEntity
8
0
100
AcDbLine
10
-667.27856923863919
20
33.426414749602216
30
0
11
-663.79606923863935
21
33.426414749602188
31
0
0
LINE
5
154
100
AcDbEntity
8
0
100
AcDbLine
10
-663.79606923863935
20
40.39141474960222
30
0
11
-667.27856923863919
21
40.391414749602241
31
0
0
LINE
5
155
100
AcDbEntity
8
0
100
AcDbLine
10
-480.20666754101046
20
-90.800352643996177
30
0
11
-466.20666754101052
21
-90.800352643996177
31
0
0
LINE
5
156
100
AcDbEntity
8
0
100
AcDbLine
10
-466.20666784627008
20
-71.519768420018636
30
0
11
-466.20095603309676
21
-71.519768420018636
31
0
0
LINE
5
157
100
AcDbEntity
8
0
100
AcDbLine
10
-466.2077350608057
20
-52.321656369361413
30
0
11
-462.72523506078846
21
-52.321656369348389
31
0
0
LINE
5
158
100
AcDbEntity
8
0
100
AcDbLine
10
-466.20761032700921
20
-40.064802217892357
30
0
11
-462.72511032683502
21
-40.064802217800789
31
0
0
LINE
5
159
100
AcDbEntity
8
0
100
AcDbLine
10
-466.20095603309676
20
-64.554768420018661
30
0
11
-462.71845603309566
21
-64.554768420016771
31
0
0
LINE
5
160
100
AcDbEntity
8
0
100
AcDbLine
10
-466.20095603309676
20
-64.554768420018661
30
0
11
-466.2066679565433
21
-64.554768420018661
31
0
0
LINE
5
161
100
AcDbEntity
8
0
100
AcDbLine
10
-462.72520273290746
20
-83.779781238394946
30
0
11
-466.20770273290748
21
-83.779781238394975
31
0
0
LINE
5
162
100
AcDbEntity
8
0
100
AcDbLine
10
-462.72523506080574
20
-59.286656369361417
30
0
11
-466.2077350608057
21
-59.286656369361417
31
0
0
LINE
5
163
100
AcDbEntity
8
0
100
AcDbLine
10
-466.20770273290748
20
-76.814781238395
30
0
11
-462.72520273290763
21
-76.814781238394716
31
0
0
LINE
5
164
100
AcDbEntity
8
0
100
AcDbLine
10
-462.72511032700925
20
-47.029802217892367
30
0
11
-466.20761032700926
21
-47.02980221789236
31
0
0
LINE
5
165
100
AcDbEntity
8
0
100
AcDbLine
10
-462.7184560330968
20
-71.519768420018607
30
0
11
-466.20095603309676
21
-71.519768420018636
31
0
0
LINE
5
166
100
AcDbEntity
8
0
100
AcDbLine
10
-639.29611257260194
20
-20.141028699992638
30
0
11
-618.29611225967756
21
-20.141028699992646
31
0
0
LINE
5
167
100
AcDbEntity
8
0
100
AcDbLine
10
-614.79611220752349
20
-20.141028699992638
30
0
11
-593.79611241613975
21
-20.141028699992646
31
0
0
LINE
5
168
100
AcDbEntity
8
0
100
AcDbLine
10
-662.04611291160336
20
-19.791028694777239
30
0
11
-631.596112457863
21
-19.791028694777239
31
0
0
LINE
5
169
100
AcDbEntity
8
0
100
AcDbLine
10
-625.9961123744165
20
-19.791028694777239
30
0
11
-596.59611193632236
21
-19.791028694777239
31
0
0
LINE
5
170
100
AcDbEntity
8
0
100
AcDbLine
10
-639.29600826527815
20
-19.441102048987954
30
0
11
-618.29600795235376
21
-19.441102048987954
31
0
0
LINE
5
171
100
AcDbEntity
8
0
100
AcDbLine
10
-642.79600831743221
20
-19.441102048987954
30
0
11
-663.79600810881595
21
-19.441102048987954
31
0
0
LINE
5
172
100
AcDbEntity
8
0
100
AcDbLine
10
-662.04600860427956
20
-19.091102043772548
30
0
11
-631.59600815053921
21
-19.091102043772548
31
0
0
LINE
5
173
100
AcDbEntity
8
0
100
AcDbLine
10
-625.9960080670927
20
-19.091102043772548
30
0
11
-596.59600762899856
21
-19.091102043772548
31
0
0
LINE
5
174
100
AcDbEntity
8
0
100
AcDbLine
10
-614.7960079001997
20
-19.441102048987954
30
0
11
-593.79600810881595
21
-19.441102048987954
31
0
0
LINE
5
175
100
AcDbEntity
8
0
100
AcDbLine
10
-639.29600826527815
20
-18.741102048987951
30
0
11
-618.29600795235376
21
-18.741102048987951
31
0
0
LINE
5
176
100
AcDbEntity
8
0
100
AcDbLine
10
-642.79600831743221
20
-18.741102048987955
30
0
11
-663.79600810881595
21
-18.741102048987955
31
0
0
LINE
5
177
100
AcDbEntity
8
0
100
AcDbLine
10
-662.04600860427956
20
-18.391102043772548
30
0
11
-631.59600815053921
21
-18.391102043772548
31
0
0
LINE
5
178
100
AcDbEntity
8
0
100
AcDbLine
10
-625.9960080670927
20
-18.391102043772548
30
0
11
-596.59600762899856
21
-18.391102043772548
31
0
0
LINE
5
179
100
AcDbEntity
8
0
100
AcDbLine
10
-614.7960079001997
20
-18.741102048987951
30
0
11
-593.79600810881595
21
-18.741102048987955
31
0
0
LINE
5
180
100
AcDbEntity
8
0
100
AcDbLine
10
-639.29600826527815
20
-18.041102048987952
30
0
11
-618.29600795235376
21
-18.041102048987952
31
0
0
LINE
5
181
100
AcDbEntity
8
0
100
AcDbLine
10
-642.79600831743221
20
-18.041102048987952
30
0
11
-663.79600810881595
21
-18.041102048987955
31
0
0
LINE
5
182
100
AcDbEntity
8
0
100
AcDbLine
10
-662.04600860427956
20
-17.691102043772545
30
0
11
-631.59600815053921
21
-17.691102043772545
31
0
0
LINE
5
183
100
AcDbEntity
8
0
100
AcDbLine
10
-625.9960080670927
20
-17.691102043772545
30
0
11
-596.59600762899856
21
-17.691102043772553
31
0
0
LINE
5
184
100
AcDbEntity
8
0
100
AcDbLine
10
-614.7960079001997
20
-18.041102048987952
30
0
11
-593.79600810881595
21
-18.041102048987955
31
0
0
LINE
5
185
100
AcDbEntity
8
0
100
AcDbLine
10
-639.29600826527815
20
-17.341102048987953
30
0
11
-618.29600795235376
21
-17.341102048987953
31
0
0
LINE
5
186
100
AcDbEntity
8
0
100
AcDbLine
10
-662.04600860427956
20
-16.99110204377255
30
0
11
-631.59600815053921
21
-16.99110204377255
31
0
0
LINE
5
187
100
AcDbEntity
8
0
100
AcDbLine
10
-642.79600831743221
20
-17.341102048987956
30
0
11
-663.79600810881595
21
-17.341102048987956
31
0
0
LINE
5
188
100
AcDbEntity
8
0
100
AcDbLine
10
-625.9960080670927
20
-16.99110204377255
30
0
11
-596.59600762899856
21
-16.99110204377255
31
0
0
LINE
5
189
100
AcDbEntity
8
0
100
AcDbLine
10
-614.7960079001997
20
-17.341102048987953
30
0
11
-593.79600810881595
21
-17.341102048987956
31
0
0
LINE
5
190
100
AcDbEntity
8
0
100
AcDbLine
10
-639.29600826527815
20
-16.641102048987953
30
0
11
-618.29600795235376
21
-16.641102048987953
31
0
0
LINE
5
191
100
AcDbEntity
8
0
100
AcDbLine
10
-642.79600831743221
20
-16.641102048987953
30
0
11
-663.79600810881595
21
-16.641102048987957
31
0
0
LINE
5
192
100
AcDbEntity
8
0
100
AcDbLine
10
-662.04600860427956
20
-16.291102043772547
30
0
11
-631.59600815053921
21
-16.291102043772547
31
0
0
LINE
5
193
100
AcDbEntity
8
0
100
AcDbLine
10
-625.9960080670927
20
-16.291102043772547
30
0
11
-596.59600762899856
21
-16.29110204377255
31
0
0
LINE
5
194
100
AcDbEntity
8
0
100
AcDbLine
10
-614.7960079001997
20
-16.641102048987953
30
0
11
-593.79600810881595
21
-16.641102048987957
31
0
0
LINE
5
195
100
AcDbEntity
8
0
100
AcDbLine
10
-639.29600826527815
20
-15.941102048987954
30
0
11
-618.29600795235376
21
-15.941102048987954
31
0
0
LINE
5
196
100
AcDbEntity
8
0
100
AcDbLine
10
-662.04600860427956
20
-15.591102043772548
30
0
11
-631.59600815053921
21
-15.591102043772548
31
0
0
LINE
5
197
100
AcDbEntity
8
0
100
AcDbLine
10
-642.79600831743221
20
-15.941102048987954
30
0
11
-663.79600810881595
21
-15.941102048987956
31
0
0
LINE
5
198
100
AcDbEntity
8
0
100
AcDbLine
10
-625.9960080670927
20
-15.591102043772548
30
0
11
-596.59600762899856
21
-15.591102043772551
31
0
0
LINE
5
199
100
AcDbEntity
8
0
100
AcDbLine
10
-614.7960079001997
20
-15.941102048987954
30
0
11
-593.79600810881595
21
-15.941102048987956
31
0
0
LINE
5
200
100
AcDbEntity
8
0
100
AcDbLine
10
-642.79600831743221
20
-15.241102048987955
30
0
11
-663.79600810881595
21
-15.241102048987955
31
0
0
LINE
5
201
100
AcDbEntity
8
0
100
AcDbLine
10
-662.04600860427956
20
-14.891102043772547
30
0
11
-631.59600815053921
21
-14.891102043772547
31
0
0
LINE
5
202
100
AcDbEntity
8
0
100
AcDbLine
10
-639.29600826527815
20
-15.241102048987953
30
0
11
-618.29600795235376
21
-15.241102048987953
31
0
0
LINE
5
203
100
AcDbEntity
8
0
100
AcDbLine
10
-625.9960080670927
20
-14.891102043772547
30
0
11
-596.59600762899856
21
-14.89110204377255
31
0
0
LINE
5
204
100
AcDbEntity
8
0
100
AcDbLine
10
-614.7960079001997
20
-15.241102048987953
30
0
11
-593.79600810881595
21
-15.241102048987955
31
0
0
LINE
5
205
100
AcDbEntity
8
0
100
AcDbLine
10
-639.29600826527815
20
-14.541102048987952
30
0
11
-618.29600795235376
21
-14.541102048987955
31
0
0
LINE
5
206
100
AcDbEntity
8
0
100
AcDbLine
10
-642.79600831743221
20
-14.541102048987955
30
0
11
-663.79600810881595
21
-14.541102048987957
31
0
0
LINE
5
207
100
AcDbEntity
8
0
100
AcDbLine
10
-662.04600860427956
20
-14.191102043772547
30
0
11
-631.59600815053921
21
-14.191102043772547
31
0
0
LINE
5
208
100
AcDbEntity
8
0
100
AcDbLine
10
-625.9960080670927
20
-14.191102043772547
30
0
11
-596.59600762899856
21
-14.191102043772549
31
0
0
LINE
5
209
100
AcDbEntity
8
0
100
AcDbLine
10
-614.7960079001997
20
-14.541102048987952
30
0
11
-593.79600810881595
21
-14.541102048987955
31
0
0
LINE
5
210
100
AcDbEntity
8
0
100
AcDbLine
10
-639.29600826527815
20
-13.841102048987953
30
0
11
-618.29600795235376
21
-13.841102048987954
31
0
0
LINE
5
211
100
AcDbEntity
8
0
100
AcDbLine
10
-642.79600831743221
20
-13.841102048987954
30
0
11
-663.79600810881595
21
-13.841102048987956
31
0
0
LINE
5
212
100
AcDbEntity
8
0
100
AcDbLine
10
-662.04600860427956
20
-13.491102043772546
30
0
11
-631.59600815053921
21
-13.491102043772546
31
0
0
LINE
5
213
100
AcDbEntity
8
0
100
AcDbLine
10
-625.9960080670927
20
-13.491102043772546
30
0
11
-596.59600762899856
21
-13.49110204377255
31
0
0
LINE
5
214
100
AcDbEntity
8
0
100
AcDbLine
10
-614.7960079001997
20
-13.841102048987953
30
0
11
-593.79600810881595
21
-13.841102048987956
31
0
0
LINE
5
215
100
AcDbEntity
8
0
100
AcDbLine
10
-639.29600826527815
20
-13.141102048987953
30
0
11
-618.29600795235376
21
-13.141102048987953
31
0
0
LINE
5
216
100
AcDbEntity
8
0
100
AcDbLine
10
-662.04600860427956
20
-12.791102043772547
30
0
11
-631.59600815053921
21
-12.791102043772547
31
0
0
LINE
5
217
100
AcDbEntity
8
0
100
AcDbLine
10
-642.79600831743221
20
-13.141102048987953
30
0
11
-663.79600810881595
21
-13.141102048987957
31
0
0
LINE
5
218
100
AcDbEntity
8
0
100
AcDbLine
10
-625.9960080670927
20
-12.791102043772547
30
0
11
-596.59600762899856
21
-12.79110204377255
31
0
0
LINE
5
219
100
AcDbEntity
8
0
100
AcDbLine
10
-614.7960079001997
20
-13.141102048987953
30
0
11
-593.79600810881595
21
-13.141102048987957
31
0
0
LINE
5
220
100
AcDbEntity
8
0
100
AcDbLine
10
-639.29600826527815
20
-12.441102048987954
30
0
11
-618.29600795235376
21
-12.441102048987954
31
0
0
LINE
5
221
100
AcDbEntity
8
0
100
AcDbLine
10
-662.04600860427956
20
-12.091102043772546
30
0
11
-631.59600815053921
21
-12.091102043772546
31
0
0
LINE
5
222
100
AcDbEntity
8
0
100
AcDbLine
10
-642.79600831743221
20
-12.441102048987956
30
0
11
-663.79600810881595
21
-12.441102048987958
31
0
0
LINE
5
223
100
AcDbEntity
8
0
100
AcDbLine
10
-625.9960080670927
20
-12.091102043772546
30
0
11
-596.59600762899856
21
-12.091102043772551
31
0
0
LINE
5
224
100
AcDbEntity
8
0
100
AcDbLine
10
-614.7960079001997
20
-12.441102048987954
30
0
11
-593.79600810881595
21
-12.441102048987956
31
0
0
LINE
5
225
100
AcDbEntity
8
0
100
AcDbLine
10
-639.29600826527815
20
-11.741102048987953
30
0
11
-618.29600795235376
21
-11.741102048987955
31
0
0
LINE
5
226
100
AcDbEntity
8
0
100
AcDbLine
10
-642.79600831743221
20
-11.741102048987955
30
0
11
-663.79600810881595
21
-11.741102048987957
31
0
0
LINE
5
227
100
AcDbEntity
8
0
100
AcDbLine
10
-662.04600860427956
20
-11.391102043772548
30
0
11
-631.59600815053921
21
-11.391102043772548
31
0
0
LINE
5
228
100
AcDbEntity
8
0
100
AcDbLine
10
-625.9960080670927
20
-11.391102043772548
30
0
11
-596.59600762899856
21
-11.39110204377255
31
0
0
LINE
5
229
100
AcDbEntity
8
0
100
AcDbLine
10
-614.7960079001997
20
-11.741102048987953
30
0
11
-593.79600810881595
21
-11.741102048987955
31
0
0
LINE
5
230
100
AcDbEntity
8
0
100
AcDbLine
10
-639.29600826527815
20
-11.041102048987952
30
0
11
-618.29600795235376
21
-11.041102048987954
31
0
0
LINE
5
231
100
AcDbEntity
8
0
100
AcDbLine
10
-642.79600831743221
20
-11.041102048987954
30
0
11
-663.79600810881595
21
-11.041102048987955
31
0
0
LINE
5
232
100
AcDbEntity
8
0
100
AcDbLine
10
-662.04600860427956
20
-10.691102043772547
30
0
11
-631.59600815053921
21
-10.691102043772547
31
0
0
LINE
5
233
100
AcDbEntity
8
0
100
AcDbLine
10
-625.9960080670927
20
-10.691102043772547
30
0
11
-596.59600762899856
21
-10.691102043772549
31
0
0
LINE
5
234
100
AcDbEntity
8
0
100
AcDbLine
10
-614.7960079001997
20
-11.041102048987952
30
0
11
-593.79600810881595
21
-11.041102048987955
31
0
0
LINE
5
235
100
AcDbEntity
8
0
100
AcDbLine
10
-639.29600826527815
20
-10.341102048987953
30
0
11
-618.29600795235376
21
-10.341102048987953
31
0
0
LINE
5
236
100
AcDbEntity
8
0
100
AcDbLine
10
-642.79600831743221
20
-10.341102048987953
30
0
11
-663.79600810881595
21
-10.341102048987956
31
0
0
LINE
5
237
100
AcDbEntity
8
0
100
AcDbLine
10
-662.04600860427956
20
-9.991102043772548
30
0
11
-631.59600815053921
21
-9.991102043772548
31
0
0
LINE
5
238
100
AcDbEntity
8
0
100
AcDbLine
10
-625.9960080670927
20
-9.991102043772548
30
0
11
-596.59600762899856
21
-9.9911020437725497
31
0
0
LINE
5
239
100
AcDbEntity
8
0
100
AcDbLine
10
-614.7960079001997
20
-10.341102048987953
30
0
11
-593.79600810881595
21
-10.341102048987956
31
0
0
LINE
5
240
100
AcDbEntity
8
0
100
AcDbLine
10
-639.29600826527815
20
-9.6411020489879533
30
0
11
-618.29600795235376
21
-9.6411020489879551
31
0
0
LINE
5
241
100
AcDbEntity
8
0
100
AcDbLine
10
-642.79600831743221
20
-9.6411020489879551
30
0
11
-663.79600810881595
21
-9.6411020489879569
31
0
0
LINE
5
242
100
AcDbEntity
8
0
100
AcDbLine
10
-662.04600860427956
20
-9.2911020437725469
30
0
11
-631.59600815053921
21
-9.2911020437725469
31
0
0
LINE
5
243
100
AcDbEntity
8
0
100
AcDbLine
10
-625.9960080670927
20
-9.2911020437725469
30
0
11
-596.59600762899856
21
-9.2911020437725504
31
0
0
LINE
5
244
100
AcDbEntity
8
0
100
AcDbLine
10
-614.7960079001997
20
-9.6411020489879533
30
0
11
-593.79600810881595
21
-9.6411020489879569
31
0
0
LINE
5
245
100
AcDbEntity
8
0
100
AcDbLine
10
-639.29600826527815
20
-8.941102048987954
30
0
11
-618.29600795235376
21
-8.941102048987954
31
0
0
LINE
5
246
100
AcDbEntity
8
0
100
AcDbLine
10
-642.79600831743221
20
-8.941102048987954
30
0
11
-663.79600810881595
21
-8.9411020489879576
31
0
0
LINE
5
247
100
AcDbEntity
8
0
100
AcDbLine
10
-662.04600860427956
20
-8.5911020437725476
30
0
11
-631.59600815053921
21
-8.5911020437725476
31
0
0
LINE
5
248
100
AcDbEntity
8
0
100
AcDbLine
10
-625.9960080670927
20
-8.5911020437725476
30
0
11
-596.59600762899856
21
-8.5911020437725512
31
0
0
LINE
5
249
100
AcDbEntity
8
0
100
AcDbLine
10
-614.7960079001997
20
-8.941102048987954
30
0
11
-593.79600810881595
21
-8.9411020489879576
31
0
0
LINE
5
250
100
AcDbEntity
8
0
100
AcDbLine
10
-639.29600826527815
20
-8.2411020489879547
30
0
11
-618.29600795235376
21
-8.2411020489879547
31
0
0
LINE
5
251
100
AcDbEntity
8
0
100
AcDbLine
10
-642.79600831743221
20
-8.2411020489879547
30
0
11
-663.79600810881595
21
-8.2411020489879565
31
0
0
LINE
5
252
100
AcDbEntity
8
0
100
AcDbLine
10
-662.04600860427956
20
-7.8911020437725474
30
0
11
-631.59600815053921
21
-7.8911020437725474
31
0
0
LINE
5
253
100
AcDbEntity
8
0
100
AcDbLine
10
-625.9960080670927
20
-7.8911020437725474
30
0
11
-596.59600762899856
21
-7.891102043772551
31
0
0
LINE
5
254
100
AcDbEntity
8
0
100
AcDbLine
10
-614.7960079001997
20
-8.2411020489879547
30
0
11
-593.79600810881595
21
-8.2411020489879565
31
0
0
LINE
5
255
100
AcDbEntity
8
0
100
AcDbLine
10
-639.29600826527815
20
-7.5411020489879537
30
0
11
-618.29600795235376
21
-7.5411020489879554
31
0
0
LINE
5
256
100
AcDbEntity
8
0
100
AcDbLine
10
-642.79600831743221
20
-7.5411020489879554
30
0
11
-663.79600810881595
21
-7.5411020489879563
31
0
0
LINE
5
257
100
AcDbEntity
8
0
100
AcDbLine
10
-614.7960079001997
20
-7.5411020489879537
30
0
11
-593.79600810881595
21
-7.5411020489879563
31
0
0
LINE
5
258
100
AcDbEntity
8
0
100
AcDbLine
10
-663.79611241613975
20
-3.3235642709005986
30
0
11
-663.79611241613975
21
-13.841028606115328
31
0
0
LINE
5
259
100
AcDbEntity
8
0
100
AcDbLine
10
-663.79611241613975
20
8.9427163843020843
30
0
11
-663.79611241613975
21
3.6414357290994004
31
0
0
LINE
5
260
100
AcDbEntity
8
0
100
AcDbLine
10
-663.79611241613975
20
21.169560598133074
30
0
11
-663.79611241613975
21
15.907716384302081
31
0
0
LINE
5
261
100
AcDbEntity
8
0
100
AcDbLine
10
-663.79611241613975
20
42.158971393884698
30
0
11
-663.79611241613975
21
40.39141474960222
31
0
0
LINE
5
262
100
AcDbEntity
8
0
100
AcDbLine
10
-663.79611241613975
20
33.426414749602188
30
0
11
-663.79611241613975
21
28.134560598133103
31
0
0
LINE
5
263
100
AcDbEntity
8
0
100
AcDbLine
10
-593.79611241613975
20
-13.841028606115328
30
0
11
-593.79611241613975
21
-3.3234562101928367
31
0
0
LINE
5
264
100
AcDbEntity
8
0
100
AcDbLine
10
-593.79611241613975
20
3.6415437898071468
30
0
11
-593.79611241613975
21
8.9263810217910322
31
0
0
LINE
5
265
100
AcDbEntity
8
0
100
AcDbLine
10
-593.79611241613975
20
15.891381021791018
30
0
11
-593.7961120510613
21
21.176471967579378
31
0
0
LINE
5
266
100
AcDbEntity
8
0
100
AcDbLine
10
-593.7961120510613
20
28.141471967579371
30
0
11
-593.79611218875607
21
33.428377900922619
31
0
0
LINE
5
267
100
AcDbEntity
8
0
100
AcDbLine
10
-593.79611237015581
20
40.393377900922616
30
0
11
-593.79611241613975
21
42.15897139388467
31
0
0
LINE
5
268
100
AcDbEntity
8
0
100
AcDbLine
10
-466.20666754101052
20
-90.800352643996177
30
0
11
-511.70666754101029
21
-90.800352643996192
31
0
0
LINE
5
269
100
AcDbEntity
8
0
100
AcDbLine
10
-511.70666754101029
20
-90.800352643996192
30
0
11
-511.70666754101029
21
-45.300351757377328
31
0
0
LINE
5
270
100
AcDbEntity
8
0
100
AcDbLine
10
-501.20666754101029
20
-34.800351757377364
30
0
11
-466.20666842762955
21
-34.800351757377364
31
0
0
ARC
5
271
100
AcDbEntity
8
0
100
AcDbCircle
10
-501.20666754101029
20
-45.300351757377314
30
0
40
10.499999999999954
210
0
220
-0
230
1
100
AcDbArc
50
90
51
180
0
LINE
5
272
100
AcDbEntity
8
0
100
AcDbLine
10
-462.72520273290746
20
-83.779781238394946
30
0
11
-462.72520273290741
21
-89.050352565765095
31
0
0
LINE
5
273
100
AcDbEntity
8
0
100
AcDbLine
10
-462.72520273290741
20
-89.050352565765095
30
0
11
-466.20666842762955
21
-89.050352565765095
31
0
0
LINE
5
274
100
AcDbEntity
8
0
100
AcDbLine
10
-462.72520273290763
20
-76.814781238394716
30
0
11
-462.7184560330968
21
-71.519768420018607
31
0
0
LINE
5
275
100
AcDbEntity
8
0
100
AcDbLine
10
-462.71845603309566
20
-64.554768420016771
30
0
11
-462.72523506080574
21
-59.286656369361417
31
0
0
LINE
5
276
100
AcDbEntity
8
0
100
AcDbLine
10
-462.72523506078846
20
-52.321656369348389
30
0
11
-462.72511032700925
21
-47.029802217892367
31
0
0
LINE
5
277
100
AcDbEntity
8
0
100
AcDbLine
10
-462.72511032683502
20
-40.064802217800789
30
0
11
-462.72511032691853
21
-34.800351757322147
31
0
0
LINE
5
278
100
AcDbEntity
8
0
100
AcDbLine
10
-466.20666842762955
20
-34.800351757377364
30
0
11
-462.72511032691853
21
-34.800351757322147
31
0
0
LWPOLYLINE
5
279
100
AcDbEntity
8
0
100
AcDbPolyline
90
2
70
1
43
0.0
10
-466.20666834428027
20
-40.064802217892328
10
-466.20666823400705
20
-47.02980221789236
0
LWPOLYLINE
5
280
100
AcDbEntity
8
0
100
AcDbPolyline
90
2
70
1
43
0.0
10
-466.20666815022383
20
-52.321656369361413
10
-466.20666803995056
20
-59.286656369361417
0
LWPOLYLINE
5
281
100
AcDbEntity
8
0
100
AcDbPolyline
90
2
70
1
43
0.0
10
-466.2066679565433
20
-64.554768420018661
10
-466.20666784627008
20
-71.519768420018636
0
LWPOLYLINE
5
282
100
AcDbEntity
8
0
100
AcDbPolyline
90
2
70
1
43
0.0
10
-466.20666776243684
20
-76.814781238395
10
-466.20666765216356
20
-83.779781238394975
0
LWPOLYLINE
5
283
100
AcDbEntity
8
0
100
AcDbPolyline
90
2
70
1
43
0.0
10
-466.20666842762955
20
-89.050352565765095
10
-466.20666754101052
20
-90.800352643996177
0
LWPOLYLINE
5
284
100
AcDbEntity
8
0
100
AcDbPolyline
90
13
70
1
43
0.0
10
-560.77794592798432
20
0.88551090867613369
10
-504.77794592798432
20
0.88551090867613258
10
-498.47794395656069
20
39.385511586678973
10
-504.77794592798432
20
0.88551090867613258
10
-498.47794395656069
20
39.385511586678973
10
-491.18888867836654
20
36.558356908716654
42
0.98780897172886861
10
-490.27499102916119
20
39.83740339314204
10
-497.77794592798438
20
42.885510908676125
42
0.1999999910593023
10
-567.7779430394512
20
42.885512112231524
10
-576.37943809506748
20
39.301556186191327
42
0.89744290970454055
10
-574.74217062342848
20
36.265601569740468
10
-573.99476228284107
20
36.569852367755331
10
-567.07794497878035
20
39.385511586678973
0
LINE
5
285
100
AcDbEntity
8
0
100
AcDbLine
10
-567.7779430394512
20
42.885512112231524
30
0
11
-576.37943809506748
21
39.301556186191327
31
0
0
LWPOLYLINE
5
286
100
AcDbEntity
8
0
100
AcDbPolyline
90
2
70
1
43
0.0
10
-536.20666765216322
20
-83.779781238394975
10
-536.2066677624365
20
-76.814781238395
0
LINE
5
287
100
AcDbEntity
8
0
100
AcDbLine
10
-536.20666754101012
20
-90.800352643996192
30
0
11
-581.70666754100989
21
-90.800352643996192
31
0
0
LINE
5
288
100
AcDbEntity
8
0
100
AcDbLine
10
-532.72520273290706
20
-83.77978123839496
30
0
11
-536.20770273290714
21
-83.779781238394975
31
0
0
LWPOLYLINE
5
289
100
AcDbEntity
8
0
100
AcDbPolyline
90
2
70
1
43
0.0
10
-536.20666842762921
20
-89.05035256576511
10
-536.20666754101012
20
-90.800352643996192
0
LINE
5
290
100
AcDbEntity
8
0
100
AcDbLine
10
-532.72520273290706
20
-83.77978123839496
30
0
11
-532.72520273290706
21
-89.05035256576511
31
0
0
LINE
5
291
100
AcDbEntity
8
0
100
AcDbLine
10
-532.72520273290729
20
-76.814781238394716
30
0
11
-532.71845603309646
21
-71.519768420018636
31
0
0
LINE
5
292
100
AcDbEntity
8
0
100
AcDbLine
10
-532.71845603309646
20
-71.519768420018636
30
0
11
-536.20095603309642
21
-71.51976842001865
31
0
0
LWPOLYLINE
5
293
100
AcDbEntity
8
0
100
AcDbPolyline
90
2
70
1
43
0.0
10
-536.20666834427993
20
-40.064802217892336
10
-536.20666823400666
20
-47.029802217892367
0
LINE
5
294
100
AcDbEntity
8
0
100
AcDbLine
10
-581.70666754100989
20
-90.800352643996192
30
0
11
-581.70666754100989
21
-45.300351757377335
31
0
0
ARC
5
295
100
AcDbEntity
8
0
100
AcDbCircle
10
-571.20666754100989
20
-45.300351757377328
30
0
40
10.499999999999954
210
0
220
-0
230
1
100
AcDbArc
50
90
51
180
0
LINE
5
296
100
AcDbEntity
8
0
100
AcDbLine
10
-571.20666754100989
20
-34.800351757377371
30
0
11
-536.20666842762921
21
-34.800351757377371
31
0
0
LINE
5
297
100
AcDbEntity
8
0
100
AcDbLine
10
-532.72523506078812
20
-52.321656369348403
30
0
11
-532.72511032700891
21
-47.029802217892382
31
0
0
LINE
5
298
100
AcDbEntity
8
0
100
AcDbLine
10
-536.20095603309642
20
-64.554768420018689
30
0
11
-536.2066679565429
21
-64.554768420018689
31
0
0
LINE
5
299
100
AcDbEntity
8
0
100
AcDbLine
10
-536.20666842762921
20
-34.800351757377371
30
0
11
-532.72511032691818
21
-34.800351757322154
31
0
0
LINE
5
300
100
AcDbEntity
8
0
100
AcDbLine
10
-532.71845603309532
20
-64.554768420016785
30
0
11
-532.72523506080529
21
-59.286656369361417
31
0
0
LINE
5
301
100
AcDbEntity
8
0
100
AcDbLine
10
-532.72511032683474
20
-40.064802217800796
30
0
11
-532.72511032691818
21
-34.800351757322154
31
0
0
LINE
5
302
100
AcDbEntity
8
0
100
AcDbLine
10
-532.72511032700891
20
-47.029802217892382
30
0
11
-536.20761032700887
21
-47.029802217892367
31
0
0
LINE
5
303
100
AcDbEntity
8
0
100
AcDbLine
10
-536.20761032700887
20
-40.064802217892364
30
0
11
-532.72511032683474
21
-40.064802217800796
31
0
0
LINE
5
304
100
AcDbEntity
8
0
100
AcDbLine
10
-532.72520273290706
20
-89.05035256576511
30
0
11
-536.20666842762921
21
-89.05035256576511
31
0
0
LWPOLYLINE
5
305
100
AcDbEntity
8
0
100
AcDbPolyline
90
2
70
1
43
0.0
10
-536.20666784626974
20
-71.51976842001865
10
-536.2066679565429
20
-64.554768420018689
0
LINE
5
306
100
AcDbEntity
8
0
100
AcDbLine
10
-550.20666754101012
20
-90.800352643996192
30
0
11
-536.20666754101012
21
-90.800352643996192
31
0
0
LINE
5
307
100
AcDbEntity
8
0
100
AcDbLine
10
-536.20773506080536
20
-52.321656369361421
30
0
11
-532.72523506078812
21
-52.321656369348403
31
0
0
LINE
5
308
100
AcDbEntity
8
0
100
AcDbLine
10
-536.20095603309642
20
-64.554768420018689
30
0
11
-532.71845603309532
21
-64.554768420016785
31
0
0
LWPOLYLINE
5
309
100
AcDbEntity
8
0
100
AcDbPolyline
90
2
70
1
43
0.0
10
-536.20666815022344
20
-52.321656369361421
10
-536.20666803995027
20
-59.286656369361424
0
LINE
5
310
100
AcDbEntity
8
0
100
AcDbLine
10
-536.20666784626974
20
-71.51976842001865
30
0
11
-536.20095603309642
21
-71.51976842001865
31
0
0
LINE
5
311
100
AcDbEntity
8
0
100
AcDbLine
10
-536.20770273290714
20
-76.814781238395
30
0
11
-532.72520273290729
21
-76.814781238394716
31
0
0
LINE
5
312
100
AcDbEntity
8
0
100
AcDbLine
10
-532.72523506080529
20
-59.286656369361417
30
0
11
-536.20773506080536
21
-59.286656369361424
31
0
0
LWPOLYLINE
5
313
100
AcDbEntity
8
0
100
AcDbPolyline
90
2
70
1
43
0.0
10
-393.47794395656069
20
39.385511586678973
10
-399.77794592798438
20
0.88551090867613369
0
LWPOLYLINE
5
314
100
AcDbEntity
8
0
100
AcDbPolyline
90
11
70
1
43
0.0
10
-455.77794592798443
20
0.88551090867613369
10
-462.07794497878041
20
39.385511586678973
10
-468.99476228284101
20
36.569852367755331
10
-469.74217062342808
20
36.265601569739545
42
-0.8974429097045562
10
-471.37943809506737
20
39.301556186191327
10
-462.7779430394512
20
42.88551211223151
42
-0.19999999105930211
10
-392.77794592798443
20
42.885510908676132
10
-385.27499102916124
20
39.837403393142083
42
-0.9878089717289088
10
-386.1888886783666
20
36.558356908716654
10
-393.47794395656069
20
39.385511586678973
10
-399.77794592798438
20
0.88551090867613369
0
LINE
5
315
100
AcDbEntity
8
0
100
AcDbLine
10
-462.7779430394512
20
42.885512112231524
30
0
11
-471.37943809506737
21
39.301556186191327
31
0
0
LWPOLYLINE
5
316
100
AcDbEntity
8
0
100
AcDbPolyline
90
8
70
1
43
0.0
10
-468.52834838616093
20
72.663615946533596
10
-474.84931869083425
20
99.598148500005351
42
0.34820199620778164
10
-485.07159901917134
20
107.69919354234317
10
-520.50046222728974
20
107.69919354234317
10
-520.50046222728974
20
116.44919393349865
10
-479.47771686534975
20
116.44919393349858
42
-0.35751076502768248
10
-465.74958740567683
20
105.19481982543323
10
-459.60046288443107
20
74.449193046879557
0
LWPOLYLINE
5
317
100
AcDbEntity
8
0
100
AcDbPolyline
90
8
70
1
43
0.0
10
-392.98885751655621
20
105.19481982543327
42
0.35751076502768248
10
-406.71698697622912
20
116.44919393349872
10
-447.73973233816923
20
116.44919393349872
10
-447.73973233816923
20
107.69919354234324
10
-412.31086913005072
20
107.69919354234315
42
-0.34820199620778164
10
-402.08858880171363
20
99.598148500005408
10
-395.7676184970403
20
72.663615946533639
10
-386.83973299531044
20
74.449193046879614
0
LINE
5
318
100
AcDbEntity
8
0
100
AcDbLine
10
-619.81674071332111
20
-69.957622961473191
30
0
11
-597.98149141842782
21
-69.962794478907341
31
0
6
DASHED
0
LINE
5
319
100
AcDbEntity
8
0
100
AcDbLine
10
-597.98149141842782
20
-69.962794478907341
30
0
11
-597.98408621302451
21
-80.918570536768357
31
0
6
DASHED
0
LINE
5
320
100
AcDbEntity
8
0
100
AcDbLine
10
-597.98408621302451
20
-80.918570536768357
30
0
11
-619.81933550791791
21
-80.913399019334221
31
0
6
DASHED
0
LINE
5
321
100
AcDbEntity
8
0
100
AcDbLine
10
-619.81933550791791
20
-80.913399019334221
30
0
11
-619.81674071332111
21
-69.957622961473191
31
0
6
DASHED
0
LINE
5
322
100
AcDbEntity
8
0
100
AcDbLine
10
-614.96063992852487
20
-80.914549765476679
30
0
11
-613.80606103672847
21
-80.914823218954922
31
0
0
SPLINE
5
323
100
AcDbEntity
8
0
100
AcDbSpline
70
0
71
2
72
6
73
3
74
0
42
0.000000001
43
0.0000000001
44
0.0000000001
40
0
40
0
40
0
40
1
40
1
40
1
10
-613.80606103672847
20
-80.914823218954922
30
0
10
-612.95917442565462
20
-80.915023797790312
30
0
10
-612.66230262290844
20
-80.589819335068398
30
0
0
SPLINE
5
324
100
AcDbEntity
8
0
100
AcDbSpline
70
0
71
2
72
6
73
3
74
0
42
0.000000001
43
0.0000000001
44
0.0000000001
40
0
40
0
40
0
40
1
40
1
40
1
10
-612.66230262290844
20
-80.589819335068398
30
0
10
-612.21891920169833
20
-80.109338341339765
30
0
10
-612.56725735204327
20
-79.083614548725393
30
0
0
SPLINE
5
325
100
AcDbEntity
8
0
100
AcDbSpline
70
0
71
2
72
6
73
3
74
0
42
0.000000001
43
0.0000000001
44
0.0000000001
40
0
40
0
40
0
40
1
40
1
40
1
10
-612.56725735204327
20
-79.083614548725393
30
0
10
-612.92849803770116
20
-78.019792880580354
30
0
10
-613.62014397734913
20
-77.544903690397319
30
0
0
SPLINE
5
326
100
AcDbEntity
8
0
100
AcDbSpline
70
0
71
2
72
6
73
3
74
0
42
0.000000001
43
0.0000000001
44
0.0000000001
40
0
40
0
40
0
40
1
40
1
40
1
10
-613.62014397734913
20
-77.544903690397319
30
0
10
-613.93305106704372
20
-77.330910292706122
30
0
10
-614.26034199076366
20
-77.242920691131701
30
0
0
SPLINE
5
327
100
AcDbEntity
8
0
100
AcDbSpline
70
0
71
2
72
6
73
3
74
0
42
0.000000001
43
0.0000000001
44
0.0000000001
40
0
40
0
40
0
40
1
40
1
40
1
10
-614.26034199076366
20
-77.242920691131701
30
0
10
-614.5876341065765
20
-77.154931089274925
30
0
10
-615.07994163652324
20
-77.154814489874582
30
0
0
LINE
5
328
100
AcDbEntity
8
0
100
AcDbLine
10
-615.07994163652324
20
-77.154814489874582
30
0
11
-616.32536277278109
21
-77.154519521082051
31
0
0
LINE
5
329
100
AcDbEntity
8
0
100
AcDbLine
10
-616.32536277278109
20
-77.154519521082051
30
0
11
-615.81943752700272
21
-77.462331643720091
31
0
0
LINE
5
330
100
AcDbEntity
8
0
100
AcDbLine
10
-615.81943752700272
20
-77.462331643720091
30
0
11
-614.76152113663102
21
-80.57760059892945
31
0
0
LINE
5
331
100
AcDbEntity
8
0
100
AcDbLine
10
-614.7615211366309
20
-80.57760059892945
30
0
11
-614.96063992852487
21
-80.914549765476664
31
0
0
LINE
5
332
100
AcDbEntity
8
0
100
AcDbLine
10
-614.15632306640566
20
-80.668586483200386
30
0
11
-615.27294365226214
21
-77.38040961847986
31
0
0
LINE
5
333
100
AcDbEntity
8
0
100
AcDbLine
10
-615.27294365226214
20
-77.380409618479874
30
0
11
-615.11177150521701
21
-77.380447790911845
31
0
0
LINE
5
334
100
AcDbEntity
8
0
100
AcDbLine
10
-615.11177150521712
20
-77.380447790911845
30
0
11
-614.06085618632858
21
-80.475202446917621
31
0
0
SPLINE
5
335
100
AcDbEntity
8
0
100
AcDbSpline
70
0
71
2
72
6
73
3
74
0
42
0.000000001
43
0.0000000001
44
0.0000000001
40
0
40
0
40
0
40
1
40
1
40
1
10
-614.06085618632858
20
-80.475202446917621
30
0
10
-613.90051332777671
20
-80.49868352643287
30
0
10
-613.77450672806981
20
-80.498713370164836
30
0
0
SPLINE
5
336
100
AcDbEntity
8
0
100
AcDbSpline
70
0
71
2
72
6
73
3
74
0
42
0.000000001
43
0.0000000001
44
0.0000000001
40
0
40
0
40
0
40
1
40
1
40
1
10
-613.77450672806981
20
-80.498713370164836
30
0
10
-613.5342129935832
20
-80.498770281960077
30
0
10
-613.41142253358487
20
-80.450447776751986
30
0
0
SPLINE
5
337
100
AcDbEntity
8
0
100
AcDbSpline
70
0
71
2
72
6
73
3
74
0
42
0.000000001
43
0.0000000001
44
0.0000000001
40
0
40
0
40
0
40
1
40
1
40
1
10
-613.41142253358487
20
-80.450447776751986
30
0
10
-613.28863207358677
20
-80.402125271543866
30
0
10
-613.19176067991191
20
-80.27321054955344
30
0
0
SPLINE
5
338
100
AcDbEntity
8
0
100
AcDbSpline
70
0
71
2
72
6
73
3
74
0
42
0.000000001
43
0.0000000001
44
0.0000000001
40
0
40
0
40
0
40
1
40
1
40
1
10
-613.19176067991191
20
-80.27321054955344
30
0
10
-613.45264675801582
20
-80.419668902510125
30
0
10
-613.80722583914303
20
-80.419584923075078
30
0
0
SPLINE
5
339
100
AcDbEntity
8
0
100
AcDbSpline
70
0
71
2
72
6
73
3
74
0
42
0.000000001
43
0.0000000001
44
0.0000000001
40
0
40
0
40
0
40
1
40
1
40
1
10
-613.80722583914303
20
-80.419584923075078
30
0
10
-613.88341607023665
20
-80.419566877981893
30
0
10
-614.01047370387073
20
-80.407815233573245
30
0
0
LINE
5
340
100
AcDbEntity
8
0
100
AcDbLine
10
-614.01047370387073
20
-80.407815233573245
30
0
11
-615.03851143837835
21
-77.380465142017286
31
0
0
SPLINE
5
341
100
AcDbEntity
8
0
100
AcDbSpline
70
0
71
2
72
6
73
3
74
0
42
0.000000001
43
0.0000000001
44
0.0000000001
40
0
40
0
40
0
40
1
40
1
40
1
10
-615.03851143837846
20
-77.380465142017286
30
0
10
-614.71030621973182
20
-77.3805428749979
30
0
10
-614.52192666410622
20
-77.434800003409833
30
0
0
SPLINE
5
342
100
AcDbEntity
8
0
100
AcDbSpline
70
0
71
2
72
6
73
3
74
0
42
0.000000001
43
0.0000000001
44
0.0000000001
40
0
40
0
40
0
40
1
40
1
40
1
10
-614.52192666410622
20
-77.434800003409833
30
0
10
-614.33354591638783
20
-77.489057132104094
30
0
10
-614.12840921409656
20
-77.644417246440156
30
0
0
SPLINE
5
343
100
AcDbEntity
8
0
100
AcDbSpline
70
0
71
2
72
6
73
3
74
0
42
0.000000001
43
0.0000000001
44
0.0000000001
40
0
40
0
40
0
40
1
40
1
40
1
10
-614.12840921409656
20
-77.644417246440156
30
0
10
-613.55721980789156
20
-78.075321566791274
30
0
10
-613.21190212682359
20
-79.092253256702094
30
0
0
SPLINE
5
344
100
AcDbEntity
8
0
100
AcDbSpline
70
0
71
2
72
6
73
3
74
0
42
0.000000001
43
0.0000000001
44
0.0000000001
40
0
40
0
40
0
40
1
40
1
40
1
10
-613.21190212682359
20
-79.092253256702094
30
0
10
-612.87450035042787
20
-80.085739670272034
30
0
10
-613.21117025529497
20
-80.449030122814548
30
0
0
SPLINE
5
345
100
AcDbEntity
8
0
100
AcDbSpline
70
0
71
2
72
6
73
3
74
0
42
0.000000001
43
0.0000000001
44
0.0000000001
40
0
40
0
40
0
40
1
40
1
40
1
10
-613.21117025529497
20
-80.449030122814548
30
0
10
-613.41493130920742
20
-80.668762076359258
30
0
10
-614.01859461758613
20
-80.668619103165696
30
0
0
LINE
5
346
100
AcDbEntity
8
0
100
AcDbLine
10
-614.01859461758613
20
-80.668619103165696
30
0
11
-614.15632306640578
21
-80.668586483200414
31
0
0
LINE
5
347
100
AcDbEntity
8
0
100
AcDbLine
10
-616.22530595929913
20
-76.914250066879617
30
0
11
-616.24240321690968
21
-76.993367013353819
31
0
0
LINE
5
348
100
AcDbEntity
8
0
100
AcDbLine
10
-616.24240321690968
20
-76.993367013353819
30
0
11
-615.16987607680983
21
-76.993621033481048
31
0
0
SPLINE
5
349
100
AcDbEntity
8
0
100
AcDbSpline
70
0
71
2
72
6
73
3
74
0
42
0.000000001
43
0.0000000001
44
0.0000000001
40
0
40
0
40
0
40
1
40
1
40
1
10
-615.16987607680983
20
-76.993621033481034
30
0
10
-614.37866735495186
20
-76.993808425419815
30
0
10
-613.89373728895896
20
-77.213703490366868
30
0
0
SPLINE
5
350
100
AcDbEntity
8
0
100
AcDbSpline
70
0
71
2
72
6
73
3
74
0
42
0.000000001
43
0.0000000001
44
0.0000000001
40
0
40
0
40
0
40
1
40
1
40
1
10
-613.89373728895896
20
-77.213703490366868
30
0
10
-612.85245687335203
20
-77.682814564006591
30
0
10
-612.39567816057831
20
-79.027977889696189
30
0
0
SPLINE
5
351
100
AcDbEntity
8
0
100
AcDbSpline
70
0
71
2
72
6
73
3
74
0
42
0.000000001
43
0.0000000001
44
0.0000000001
40
0
40
0
40
0
40
1
40
1
40
1
10
-612.39567816057831
20
-79.027977889696189
30
0
10
-612.0901676927499
20
-79.927683740022417
30
0
10
-612.33747838243505
20
-80.364255427582876
30
0
0
LINE
5
352
100
AcDbEntity
8
0
100
AcDbLine
10
-612.33747838243505
20
-80.364255427582876
30
0
11
-612.41090607788442
21
-80.493175702039977
31
0
0
SPLINE
5
353
100
AcDbEntity
8
0
100
AcDbSpline
70
0
71
2
72
6
73
3
74
0
42
0.000000001
43
0.0000000001
44
0.0000000001
40
0
40
0
40
0
40
1
40
1
40
1
10
-612.41090607788442
20
-80.493175702039977
30
0
10
-612.41479964912514
20
-80.499035406738315
30
0
10
-612.43216127347716
20
-80.534196248030298
30
0
0
SPLINE
5
354
100
AcDbEntity
8
0
100
AcDbSpline
70
0
71
2
72
6
73
3
74
0
42
0.000000001
43
0.0000000001
44
0.0000000001
40
0
40
0
40
0
40
1
40
1
40
1
10
-612.43216127347716
20
-80.534196248030298
30
0
10
-611.94324115467157
20
-80.144568288889118
30
0
10
-612.31743027114715
20
-79.042648436320192
30
0
0
SPLINE
5
355
100
AcDbEntity
8
0
100
AcDbSpline
70
0
71
2
72
6
73
3
74
0
42
0.000000001
43
0.0000000001
44
0.0000000001
40
0
40
0
40
0
40
1
40
1
40
1
10
-612.31743027114715
20
-79.042648436320192
30
0
10
-612.71056345739476
20
-77.885045906625891
30
0
10
-613.5120362506201
20
-77.336870633816034
30
0
0
SPLINE
5
356
100
AcDbEntity
8
0
100
AcDbSpline
70
0
71
2
72
6
73
3
74
0
42
0.000000001
43
0.0000000001
44
0.0000000001
40
0
40
0
40
0
40
1
40
1
40
1
10
-613.5120362506201
20
-77.336870633816034
30
0
10
-614.12713728741107
20
-76.914747002624196
30
0
10
-615.19673426325596
20
-76.914493676484739
30
0
0
LINE
5
357
100
AcDbEntity
8
0
100
AcDbLine
10
-615.19673426325596
20
-76.914493676484739
30
0
11
-616.22530595929913
21
-76.914250066879617
31
0
0
LINE
5
358
100
AcDbEntity
8
0
100
AcDbLine
10
-609.37449536127656
20
-80.262393088887706
30
0
11
-609.41438376841938
21
-80.291687669992513
31
0
0
SPLINE
5
359
100
AcDbEntity
8
0
100
AcDbSpline
70
0
71
2
72
6
73
3
74
0
42
0.000000001
43
0.0000000001
44
0.0000000001
40
0
40
0
40
0
40
1
40
1
40
1
10
-609.41438376841938
20
-80.291687669992513
30
0
10
-609.64294594648686
20
-80.446944767930546
30
0
10
-609.87737816037077
20
-80.44688924439312
30
0
0
SPLINE
5
360
100
AcDbEntity
8
0
100
AcDbSpline
70
0
71
2
72
6
73
3
74
0
42
0.000000001
43
0.0000000001
44
0.0000000001
40
0
40
0
40
0
40
1
40
1
40
1
10
-609.87737816037077
20
-80.44688924439312
30
0
10
-610.64807394430454
20
-80.4467067107921
30
0
10
-611.16259612379861
20
-78.931566463598671
30
0
0
SPLINE
5
361
100
AcDbEntity
8
0
100
AcDbSpline
70
0
71
2
72
6
73
3
74
0
42
0.000000001
43
0.0000000001
44
0.0000000001
40
0
40
0
40
0
40
1
40
1
40
1
10
-611.16259612379861
20
-78.931566463598671
30
0
10
-611.5387531894952
20
-77.823784922027116
30
0
10
-611.18353978219454
20
-77.463429621841897
30
0
0
LINE
5
362
100
AcDbEntity
8
0
100
AcDbLine
10
-611.18353978219454
20
-77.463429621841897
30
0
11
-611.21984220219178
21
-77.434116995502734
31
0
0
SPLINE
5
363
100
AcDbEntity
8
0
100
AcDbSpline
70
0
71
2
72
6
73
3
74
0
42
0.000000001
43
0.0000000001
44
0.0000000001
40
0
40
0
40
0
40
1
40
1
40
1
10
-611.21984220219178
20
-77.434116995502734
30
0
10
-611.44223587153715
20
-77.642122686279848
30
0
10
-611.45183966356183
20
-77.980582118287188
30
0
0
SPLINE
5
364
100
AcDbEntity
8
0
100
AcDbSpline
70
0
71
2
72
6
73
3
74
0
42
0.000000001
43
0.0000000001
44
0.0000000001
40
0
40
0
40
0
40
1
40
1
40
1
10
-611.45183966356183
20
-77.980582118287188
30
0
10
-611.46144405163284
20
-78.319041550153344
30
0
10
-611.26538077064356
20
-78.896377166550209
30
0
0
SPLINE
5
365
100
AcDbEntity
8
0
100
AcDbSpline
70
0
71
2
72
6
73
3
74
0
42
0.000000001
43
0.0000000001
44
0.0000000001
40
0
40
0
40
0
40
1
40
1
40
1
10
-611.26538077064356
20
-78.896377166550209
30
0
10
-610.71306462672987
20
-80.522881851619985
30
0
10
-609.85738692684458
20
-80.523084512559805
30
0
0
SPLINE
5
366
100
AcDbEntity
8
0
100
AcDbSpline
70
0
71
2
72
6
73
3
74
0
42
0.000000001
43
0.0000000001
44
0.0000000001
40
0
40
0
40
0
40
1
40
1
40
1
10
-609.85738692684458
20
-80.523084512559805
30
0
10
-609.46764408651848
20
-80.52317682027136
30
0
10
-609.37449536127656
20
-80.262393088887706
30
0
0
SPLINE
5
367
100
AcDbEntity
8
0
100
AcDbSpline
70
0
71
2
72
6
73
3
74
0
42
0.000000001
43
0.0000000001
44
0.0000000001
40
0
40
0
40
0
40
1
40
1
40
1
10
-609.76673849806184
20
-80.953875318354818
30
0
10
-609.05465017155257
20
-80.954043971212656
30
0
10
-608.81139035983938
20
-80.414907522927464
30
0
0
SPLINE
5
368
100
AcDbEntity
8
0
100
AcDbSpline
70
0
71
2
72
6
73
3
74
0
42
0.000000001
43
0.0000000001
44
0.0000000001
40
0
40
0
40
0
40
1
40
1
40
1
10
-608.81139035983938
20
-80.414907522927464
30
0
10
-608.56813054805571
20
-79.875770776619078
30
0
10
-608.87464823626999
20
-78.973133927274347
30
0
0
SPLINE
5
369
100
AcDbEntity
8
0
100
AcDbSpline
70
0
71
2
72
6
73
3
74
0
42
0.000000001
43
0.0000000001
44
0.0000000001
40
0
40
0
40
0
40
1
40
1
40
1
10
-608.87464823626999
20
-78.973133927274347
30
0
10
-609.16428099903715
20
-78.120318044453469
30
0
10
-609.75694937058961
20
-77.613217805554157
30
0
0
SPLINE
5
370
100
AcDbEntity
8
0
100
AcDbSpline
70
0
71
2
72
6
73
3
74
0
42
0.000000001
43
0.0000000001
44
0.0000000001
40
0
40
0
40
0
40
1
40
1
40
1
10
-609.75694937058961
20
-77.613217805554157
30
0
10
-610.34961774221256
20
-77.106117864678055
30
0
10
-611.05877590446676
20
-77.105949905807975
30
0
0
SPLINE
5
371
100
AcDbEntity
8
0
100
AcDbSpline
70
0
71
2
72
6
73
3
74
0
42
0.000000001
43
0.0000000001
44
0.0000000001
40
0
40
0
40
0
40
1
40
1
40
1
10
-611.05877590446676
20
-77.105949905807975
30
0
10
-611.61848257669578
20
-77.105817343418849
30
0
10
-611.93372322425057
20
-77.463251946437467
30
0
0
SPLINE
5
372
100
AcDbEntity
8
0
100
AcDbSpline
70
0
71
2
72
6
73
3
74
0
42
0.000000001
43
0.0000000001
44
0.0000000001
40
0
40
0
40
0
40
1
40
1
40
1
10
-611.93372322425057
20
-77.463251946437467
30
0
10
-612.39634799618682
20
-77.990614888005865
30
0
10
-612.04503646409205
20
-79.025130176124975
30
0
0
SPLINE
5
373
100
AcDbEntity
8
0
100
AcDbSpline
70
0
71
2
72
6
73
3
74
0
42
0.000000001
43
0.0000000001
44
0.0000000001
40
0
40
0
40
0
40
1
40
1
40
1
10
-612.04503646409205
20
-79.025130176124975
30
0
10
-611.74446732737567
20
-79.91018343799027
30
0
10
-611.12776387341012
20
-80.431941085587638
30
0
0
SPLINE
5
374
100
AcDbEntity
8
0
100
AcDbSpline
70
0
71
2
72
6
73
3
74
0
42
0.000000001
43
0.0000000001
44
0.0000000001
40
0
40
0
40
0
40
1
40
1
40
1
10
-611.12776387341012
20
-80.431941085587638
30
0
10
-610.51106041951505
20
-80.953699031208231
30
0
10
-609.76673849806184
20
-80.953875318354818
30
0
0
SPLINE
5
375
100
AcDbEntity
8
0
100
AcDbSpline
70
0
71
2
72
6
73
3
74
0
42
0.000000001
43
0.0000000001
44
0.0000000001
40
0
40
0
40
0
40
1
40
1
40
1
10
-609.85234737168503
20
-80.701840338859384
30
0
10
-610.84282335613489
20
-80.701605751942026
30
0
10
-611.4339400889487
20
-78.960806226165005
30
0
0
SPLINE
5
376
100
AcDbEntity
8
0
100
AcDbSpline
70
0
71
2
72
6
73
3
74
0
42
0.000000001
43
0.0000000001
44
0.0000000001
40
0
40
0
40
0
40
1
40
1
40
1
10
-611.4339400889487
20
-78.960806226165005
30
0
10
-611.98030827748153
20
-77.351885426456718
30
0
10
-611.00448430639938
20
-77.352116543152974
30
0
0
SPLINE
5
377
100
AcDbEntity
8
0
100
AcDbSpline
70
0
71
2
72
6
73
3
74
0
42
0.000000001
43
0.0000000001
44
0.0000000001
40
0
40
0
40
0
40
1
40
1
40
1
10
-611.00448430639938
20
-77.352116543152974
30
0
10
-610.5502718919995
20
-77.352224120006724
30
0
10
-610.16811518623035
20
-77.778688422730667
30
0
0
SPLINE
5
378
100
AcDbEntity
8
0
100
AcDbSpline
70
0
71
2
72
6
73
3
74
0
42
0.000000001
43
0.0000000001
44
0.0000000001
40
0
40
0
40
0
40
1
40
1
40
1
10
-610.16811518623035
20
-77.778688422730667
30
0
10
-609.7859584803906
20
-78.2051524274314
30
0
10
-609.50730679512549
20
-79.025731218643372
30
0
0
SPLINE
5
379
100
AcDbEntity
8
0
100
AcDbSpline
70
0
71
2
72
6
73
3
74
0
42
0.000000001
43
0.0000000001
44
0.0000000001
40
0
40
0
40
0
40
1
40
1
40
1
10
-609.50730679512549
20
-79.025731218643372
30
0
10
-609.19182247039282
20
-79.954744055629646
30
0
10
-609.29598370115048
20
-80.321019740552742
30
0
0
SPLINE
5
380
100
AcDbEntity
8
0
100
AcDbSpline
70
0
71
2
72
6
73
3
74
0
42
0.000000001
43
0.0000000001
44
0.0000000001
40
0
40
0
40
0
40
1
40
1
40
1
10
-609.29598370115048
20
-80.321019740552742
30
0
10
-609.40692545005004
20
-80.701945833749875
30
0
10
-609.85234737168503
20
-80.701840338859384
30
0
0
SPLINE
5
381
100
AcDbEntity
8
0
100
AcDbSpline
70
0
71
2
72
6
73
3
74
0
42
0.000000001
43
0.0000000001
44
0.0000000001
40
0
40
0
40
0
40
1
40
1
40
1
10
-608.88272809759394
20
-80.804634085346464
30
0
10
-608.53231457965092
20
-80.602519341986337
30
0
10
-608.45529795579887
20
-80.113160189661443
30
0
0
SPLINE
5
382
100
AcDbEntity
8
0
100
AcDbSpline
70
0
71
2
72
6
73
3
74
0
42
0.000000001
43
0.0000000001
44
0.0000000001
40
0
40
0
40
0
40
1
40
1
40
1
10
-608.45529795579887
20
-80.113160189661443
30
0
10
-608.37828252403961
20
-79.623801037054236
30
0
10
-608.59621676485858
20
-78.981990961015242
30
0
0
SPLINE
5
383
100
AcDbEntity
8
0
100
AcDbSpline
70
0
71
2
72
6
73
3
74
0
42
0.000000001
43
0.0000000001
44
0.0000000001
40
0
40
0
40
0
40
1
40
1
40
1
10
-608.59621676485858
20
-78.981990961015242
30
0
10
-608.91668891225424
20
-78.038325226533644
30
0
10
-609.59285557450289
20
-77.457945438756283
30
0
0
SPLINE
5
384
100
AcDbEntity
8
0
100
AcDbSpline
70
0
71
2
72
6
73
3
74
0
42
0.000000001
43
0.0000000001
44
0.0000000001
40
0
40
0
40
0
40
1
40
1
40
1
10
-609.59285557450289
20
-77.457945438756283
30
0
10
-610.26902342884443
20
-76.877565650696596
30
0
10
-611.04851089763599
20
-76.877381034849975
30
0
0
SPLINE
5
385
100
AcDbEntity
8
0
100
AcDbSpline
70
0
71
2
72
6
73
3
74
0
42
0.000000001
43
0.0000000001
44
0.0000000001
40
0
40
0
40
0
40
1
40
1
40
1
10
-611.04851089763599
20
-76.877381034849975
30
0
10
-611.54667935213911
20
-76.87726304733296
30
0
10
-611.86589851965471
20
-77.214183768993749
30
0
0
LINE
5
386
100
AcDbEntity
8
0
100
AcDbLine
10
-611.86589851965471
20
-77.214183768993749
30
0
11
-611.86095718868398
21
-77.228836953501101
31
0
0
SPLINE
5
387
100
AcDbEntity
8
0
100
AcDbSpline
70
0
71
2
72
6
73
3
74
0
42
0.000000001
43
0.0000000001
44
0.0000000001
40
0
40
0
40
0
40
1
40
1
40
1
10
-611.86095718868387
20
-77.228836953501101
30
0
10
-611.58813722326886
20
-76.962234553014554
30
0
10
-611.04015180410602
20
-76.962364339311506
30
0
0
SPLINE
5
388
100
AcDbEntity
8
0
100
AcDbSpline
70
0
71
2
72
6
73
3
74
0
42
0.000000001
43
0.0000000001
44
0.0000000001
40
0
40
0
40
0
40
1
40
1
40
1
10
-611.04015180410602
20
-76.962364339311506
30
0
10
-610.3046203754177
20
-76.962538544494848
30
0
10
-609.64472430279454
20
-77.516541210789825
30
0
0
SPLINE
5
389
100
AcDbEntity
8
0
100
AcDbSpline
70
0
71
2
72
6
73
3
74
0
42
0.000000001
43
0.0000000001
44
0.0000000001
40
0
40
0
40
0
40
1
40
1
40
1
10
-609.64472430279454
20
-77.516541210789825
30
0
10
-608.98482823017139
20
-78.070543877084816
30
0
10
-608.69226619316078
20
-78.932151542987128
30
0
0
SPLINE
5
390
100
AcDbEntity
8
0
100
AcDbSpline
70
0
71
2
72
6
73
3
74
0
42
0.000000001
43
0.0000000001
44
0.0000000001
40
0
40
0
40
0
40
1
40
1
40
1
10
-608.69226619316078
20
-78.932151542987128
30
0
10
-608.47433195234191
20
-79.573961619026122
30
0
10
-608.52650685505193
20
-80.054535267601352
30
0
0
SPLINE
5
391
100
AcDbEntity
8
0
100
AcDbSpline
70
0
71
2
72
6
73
3
74
0
42
0.000000001
43
0.0000000001
44
0.0000000001
40
0
40
0
40
0
40
1
40
1
40
1
10
-608.52650685505193
20
-80.054535267601352
30
0
10
-608.57868175776196
20
-80.535108916176597
30
0
10
-608.89366387556731
20
-80.772397004466413
30
0
0
LINE
5
392
100
AcDbEntity
8
0
100
AcDbLine
10
-608.89366387556731
20
-80.772397004466413
30
0
11
-608.88272809759394
21
-80.804634085346464
31
0
0
LINE
5
393
100
AcDbEntity
8
0
100
AcDbLine
10
-607.67858809266602
20
-80.916274465640029
30
0
11
-606.27785513787308
21
-80.916606218889029
31
0
0
LINE
5
394
100
AcDbEntity
8
0
100
AcDbLine
10
-606.27785513787308
20
-80.916606218889029
30
0
11
-606.8273947334244
21
-80.515010756491591
31
0
0
LINE
5
395
100
AcDbEntity
8
0
100
AcDbLine
10
-606.8273947334244
20
-80.515010756491591
30
0
11
-607.89125848313051
21
-77.382157916061914
31
0
0
LINE
5
396
100
AcDbEntity
8
0
100
AcDbLine
10
-607.89125848313063
20
-77.382157916061914
30
0
11
-607.86781478490514
21
-77.382163468528589
31
0
0
LINE
5
397
100
AcDbEntity
8
0
100
AcDbLine
10
-607.86781478490502
20
-77.382163468528589
30
0
11
-607.76529510084811
21
-77.373396660253647
31
0
0
LINE
5
398
100
AcDbEntity
8
0
100
AcDbLine
10
-607.76529510084811
20
-77.373396660253647
30
0
11
-607.73892123836765
21
-77.37340290670808
31
0
0
LINE
5
399
100
AcDbEntity
8
0
100
AcDbLine
10
-607.73892123836754
20
-77.37340290670808
30
0
11
-606.68201206845242
21
-80.485741160922146
31
0
0
LINE
5
400
100
AcDbEntity
8
0
100
AcDbLine
10
-606.68201206845242
20
-80.485741160922174
30
0
11
-606.25708754051379
21
-80.805255948909064
31
0
0
LINE
5
401
100
AcDbEntity
8
0
100
AcDbLine
10
-606.25708754051379
20
-80.805255948909064
30
0
11
-606.23793322061215
21
-80.740791503824482
31
0
0
LINE
5
402
100
AcDbEntity
8
0
100
AcDbLine
10
-606.23793322061215
20
-80.740791503824482
30
0
11
-606.62069440406765
21
-80.450591028316651
31
0
0
LINE
5
403
100
AcDbEntity
8
0
100
AcDbLine
10
-606.62069440406776
20
-80.450591028316651
30
0
11
-607.66566117152888
21
-77.373420257813521
31
0
0
SPLINE
5
404
100
AcDbEntity
8
0
100
AcDbSpline
70
0
71
2
72
6
73
3
74
0
42
0.000000001
43
0.0000000001
44
0.0000000001
40
0
40
0
40
0
40
1
40
1
40
1
10
-607.66566117152888
20
-77.373420257813521
30
0
10
-607.53777424940154
20
-77.36172899513889
30
0
10
-607.41762797820468
20
-77.361757450895354
30
0
0
SPLINE
5
405
100
AcDbEntity
8
0
100
AcDbSpline
70
0
71
2
72
6
73
3
74
0
42
0.000000001
43
0.0000000001
44
0.0000000001
40
0
40
0
40
0
40
1
40
1
40
1
10
-607.41762797820468
20
-77.361757450895354
30
0
10
-606.95169371469206
20
-77.361867803982435
30
0
10
-606.64269972284592
20
-77.568534267790511
30
0
0
SPLINE
5
406
100
AcDbEntity
8
0
100
AcDbSpline
70
0
71
2
72
6
73
3
74
0
42
0.000000001
43
0.0000000001
44
0.0000000001
40
0
40
0
40
0
40
1
40
1
40
1
10
-606.64269972284592
20
-77.568534267790511
30
0
10
-606.33370453897749
20
-77.775201029904139
30
0
10
-606.09045598467765
20
-78.249983722456847
30
0
0
SPLINE
5
407
100
AcDbEntity
8
0
100
AcDbSpline
70
0
71
2
72
6
73
3
74
0
42
0.000000001
43
0.0000000001
44
0.0000000001
40
0
40
0
40
0
40
1
40
1
40
1
10
-606.09045598467765
20
-78.249983722456847
30
0
10
-606.08664970089092
20
-77.449984768402288
30
0
10
-605.89605882315982
20
-77.156989624650521
30
0
0
LINE
5
408
100
AcDbEntity
8
0
100
AcDbLine
10
-605.89605882315982
20
-77.156989624650521
30
0
11
-608.95539826066931
21
-77.156265042713102
31
0
0
LINE
5
409
100
AcDbEntity
8
0
100
AcDbLine
10
-608.95539826066931
20
-77.156265042713102
30
0
11
-608.43858283845714
21
-77.487522848103069
31
0
0
LINE
5
410
100
AcDbEntity
8
0
100
AcDbLine
10
-608.43858283845714
20
-77.487522848103069
30
0
11
-607.40056945869412
21
-80.544179032672929
31
0
0
LINE
5
411
100
AcDbEntity
8
0
100
AcDbLine
10
-607.40056945869412
20
-80.544179032672929
30
0
11
-607.67858809266602
21
-80.916274465640029
31
0
0
LINE
5
412
100
AcDbEntity
8
0
100
AcDbLine
10
-605.60091768004327
20
-77.180502630143309
30
0
11
-605.82237468006554
21
-76.916713924275982
31
0
0
LINE
5
413
100
AcDbEntity
8
0
100
AcDbLine
10
-605.82237468006554
20
-76.916713924275996
30
0
11
-608.88171530966792
21
-76.915989342056236
31
0
0
LINE
5
414
100
AcDbEntity
8
0
100
AcDbLine
10
-608.88171530966792
20
-76.915989342056236
30
0
11
-608.92811719006045
21
-76.99509934794709
31
0
0
LINE
5
415
100
AcDbEntity
8
0
100
AcDbLine
10
-608.92811719006045
20
-76.99509934794709
30
0
11
-605.82775068460978
21
-76.995833646842357
31
0
0
LINE
5
416
100
AcDbEntity
8
0
100
AcDbLine
10
-605.82775068460978
20
-76.995833646842357
30
0
11
-605.68003807539196
21
-77.18048389106238
31
0
0
SPLINE
5
417
100
AcDbEntity
8
0
100
AcDbSpline
70
0
71
2
72
6
73
3
74
0
42
0.000000001
43
0.0000000001
44
0.0000000001
40
0
40
0
40
0
40
1
40
1
40
1
10
-605.68003807539196
20
-77.18048389106238
30
0
10
-605.86804494548846
20
-77.576043746144677
30
0
10
-605.89627328280903
20
-78.062483991172115
30
0
0
LINE
5
418
100
AcDbEntity
8
0
100
AcDbLine
10
-605.89627328280903
20
-78.062483991172115
30
0
11
-605.89701286232685
21
-78.094718306830003
31
0
0
LINE
5
419
100
AcDbEntity
8
0
100
AcDbLine
10
-605.89701286232685
20
-78.094718306830003
30
0
11
-605.81518285599384
21
-78.059572734397875
31
0
0
LINE
5
420
100
AcDbEntity
8
0
100
AcDbLine
10
-605.81518285599384
20
-78.059572734397875
30
0
11
-605.81159954706982
21
-78.009756913647294
31
0
0
SPLINE
5
421
100
AcDbEntity
8
0
100
AcDbSpline
70
0
71
2
72
6
73
3
74
0
42
0.000000001
43
0.0000000001
44
0.0000000001
40
0
40
0
40
0
40
1
40
1
40
1
10
-605.81159954706982
20
-78.009756913647294
30
0
10
-605.76254949556642
20
-77.576068731962394
30
0
10
-605.61443222470552
20
-77.209803457702549
30
0
0
LINE
5
422
100
AcDbEntity
8
0
100
AcDbLine
10
-605.61443222470552
20
-77.209803457702549
30
0
11
-605.60091768004327
21
-77.180502630143309
31
0
0
LINE
5
423
100
AcDbEntity
8
0
100
AcDbLine
10
-604.39360693403762
20
-80.917052489151615
30
0
11
-602.99287397924468
21
-80.917384242400615
31
0
0
LINE
5
424
100
AcDbEntity
8
0
100
AcDbLine
10
-602.99287397924468
20
-80.917384242400615
30
0
11
-603.54241238270311
21
-80.515788780285519
31
0
0
LINE
5
425
100
AcDbEntity
8
0
100
AcDbLine
10
-603.54241238270311
20
-80.515788780285519
30
0
11
-604.60627613240933
21
-77.382935939855827
31
0
0
LINE
5
426
100
AcDbEntity
8
0
100
AcDbLine
10
-604.60627613240933
20
-77.382935939855827
30
0
11
-604.58283362627662
21
-77.382941492040175
31
0
0
LINE
5
427
100
AcDbEntity
8
0
100
AcDbLine
10
-604.58283362627662
20
-77.382941492040175
30
0
11
-604.48031275012693
21
-77.374174684047574
31
0
0
LINE
5
428
100
AcDbEntity
8
0
100
AcDbLine
10
-604.48031275012693
20
-77.374174684047574
30
0
11
-604.45393888764647
21
-77.374180930502007
31
0
0
LINE
5
429
100
AcDbEntity
8
0
100
AcDbLine
10
-604.45393888764636
20
-77.374180930502007
30
0
11
-603.39702971773113
21
-80.486519184716073
31
0
0
LINE
5
430
100
AcDbEntity
8
0
100
AcDbLine
10
-603.39702971773113
20
-80.486519184716087
30
0
11
-602.9721051897925
21
-80.806033972702977
31
0
0
LINE
5
431
100
AcDbEntity
8
0
100
AcDbLine
10
-602.9721051897925
20
-80.806033972702977
30
0
11
-602.95295086989097
21
-80.74156952761841
31
0
0
LINE
5
432
100
AcDbEntity
8
0
100
AcDbLine
10
-602.95295086989097
20
-80.74156952761841
30
0
11
-603.33571205334647
21
-80.451369052110579
31
0
0
LINE
5
433
100
AcDbEntity
8
0
100
AcDbLine
10
-603.33571205334647
20
-80.451369052110579
30
0
11
-604.3806800129006
21
-77.374198281325107
31
0
0
SPLINE
5
434
100
AcDbEntity
8
0
100
AcDbSpline
70
0
71
2
72
6
73
3
74
0
42
0.000000001
43
0.0000000001
44
0.0000000001
40
0
40
0
40
0
40
1
40
1
40
1
10
-604.3806800129006
20
-77.374198281325107
30
0
10
-604.25279189868024
20
-77.362507018932817
30
0
10
-604.1326456274835
20
-77.362535474689281
30
0
0
SPLINE
5
435
100
AcDbEntity
8
0
100
AcDbSpline
70
0
71
2
72
6
73
3
74
0
42
0.000000001
43
0.0000000001
44
0.0000000001
40
0
40
0
40
0
40
1
40
1
40
1
10
-604.1326456274835
20
-77.362535474689281
30
0
10
-603.66671136397076
20
-77.362645827776348
30
0
10
-603.35771737212463
20
-77.569312291584424
30
0
0
SPLINE
5
436
100
AcDbEntity
8
0
100
AcDbSpline
70
0
71
2
72
6
73
3
74
0
42
0.000000001
43
0.0000000001
44
0.0000000001
40
0
40
0
40
0
40
1
40
1
40
1
10
-603.35771737212463
20
-77.569312291584424
30
0
10
-603.04872338034909
20
-77.775979053415725
30
0
10
-602.80547482604925
20
-78.250761745968433
30
0
0
SPLINE
5
437
100
AcDbEntity
8
0
100
AcDbSpline
70
0
71
2
72
6
73
3
74
0
42
0.000000001
43
0.0000000001
44
0.0000000001
40
0
40
0
40
0
40
1
40
1
40
1
10
-602.80547482604925
20
-78.250761745968433
30
0
10
-602.80166854226263
20
-77.45076279191386
30
0
10
-602.61107647243864
20
-77.157767648444448
30
0
0
LINE
5
438
100
AcDbEntity
8
0
100
AcDbLine
10
-602.61107647243864
20
-77.157767648444448
30
0
11
-605.67041710204091
21
-77.157043066224688
31
0
0
LINE
5
439
100
AcDbEntity
8
0
100
AcDbLine
10
-605.67041710204091
20
-77.157043066224688
30
0
11
-605.15360048773584
21
-77.488300871896996
31
0
0
LINE
5
440
100
AcDbEntity
8
0
100
AcDbLine
10
-605.15360048773584
20
-77.488300871896996
30
0
11
-604.11558830006572
21
-80.544957056184501
31
0
0
LINE
5
441
100
AcDbEntity
8
0
100
AcDbLine
10
-604.11558830006572
20
-80.544957056184501
30
0
11
-604.39360693403751
21
-80.917052489151601
31
0
0
LINE
5
442
100
AcDbEntity
8
0
100
AcDbLine
10
-602.31593652141487
20
-77.181280653654895
30
0
11
-602.53739352143714
21
-76.917491947787568
31
0
0
LINE
5
443
100
AcDbEntity
8
0
100
AcDbLine
10
-602.53739352143714
20
-76.917491947787568
30
0
11
-605.59673415103941
21
-76.916767365567821
31
0
0
LINE
5
444
100
AcDbEntity
8
0
100
AcDbLine
10
-605.59673415103953
20
-76.916767365567821
30
0
11
-605.64313603143205
21
-76.995877371458675
31
0
0
LINE
5
445
100
AcDbEntity
8
0
100
AcDbLine
10
-605.64313603143194
20
-76.995877371458675
30
0
11
-602.54276952598138
21
-76.996611670353943
31
0
0
LINE
5
446
100
AcDbEntity
8
0
100
AcDbLine
10
-602.54276952598138
20
-76.996611670353943
30
0
11
-602.39505691676345
21
-77.181261914573952
31
0
0
SPLINE
5
447
100
AcDbEntity
8
0
100
AcDbSpline
70
0
71
2
72
6
73
3
74
0
42
0.000000001
43
0.0000000001
44
0.0000000001
40
0
40
0
40
0
40
1
40
1
40
1
10
-602.39505691676356
20
-77.181261914573952
30
0
10
-602.58306259476717
20
-77.576821769938604
30
0
10
-602.61129093208774
20
-78.063262014966043
30
0
0
LINE
5
448
100
AcDbEntity
8
0
100
AcDbLine
10
-602.61129093208774
20
-78.063262014966043
30
0
11
-602.61203170369845
21
-78.095496330341604
31
0
0
LINE
5
449
100
AcDbEntity
8
0
100
AcDbLine
10
-602.61203170369845
20
-78.095496330341604
30
0
11
-602.53020050527266
21
-78.060350758191802
31
0
0
LINE
5
450
100
AcDbEntity
8
0
100
AcDbLine
10
-602.53020050527266
20
-78.060350758191802
30
0
11
-602.52661719634852
21
-78.010534937441221
31
0
0
SPLINE
5
451
100
AcDbEntity
8
0
100
AcDbSpline
70
0
71
2
72
6
73
3
74
0
42
0.000000001
43
0.0000000001
44
0.0000000001
40
0
40
0
40
0
40
1
40
1
40
1
10
-602.52661719634852
20
-78.010534937441221
30
0
10
-602.47756833693802
20
-77.57684675547398
30
0
10
-602.32944987398434
20
-77.210581481496476
30
0
0
LINE
5
452
100
AcDbEntity
8
0
100
AcDbLine
10
-602.32944987398434
20
-77.210581481496476
30
0
11
-602.31593652141487
21
-77.181280653654895
31
0
0
LINE
5
453
100
AcDbEntity
8
0
100
AcDbLine
10
-613.75326892685382
20
-74.151465197580265
30
0
11
-613.80444599559394
21
-74.095775184330535
31
0
0
SPLINE
5
454
100
AcDbEntity
8
0
100
AcDbSpline
70
0
71
2
72
6
73
3
74
0
42
0.000000001
43
0.0000000001
44
0.0000000001
40
0
40
0
40
0
40
1
40
1
40
1
10
-613.80444599559394
20
-74.095775184330535
30
0
10
-614.2243918123412
20
-73.635602954549853
30
0
10
-614.57405421798512
20
-73.175446774829254
30
0
0
LINE
5
455
100
AcDbEntity
8
0
100
AcDbLine
10
-614.57405421798512
20
-73.175446774829254
30
0
11
-614.6233056648465
21
-73.108035963925005
31
0
0
LINE
5
456
100
AcDbEntity
8
0
100
AcDbLine
10
-614.6233056648465
20
-73.108035963925005
30
0
11
-614.65444560441472
21
-73.128540931688747
31
0
0
SPLINE
5
457
100
AcDbEntity
8
0
100
AcDbSpline
70
0
71
2
72
6
73
3
74
0
42
0.000000001
43
0.0000000001
44
0.0000000001
40
0
40
0
40
0
40
1
40
1
40
1
10
-614.65444560441472
20
-73.128540931688747
30
0
10
-614.57057709786864
20
-73.573982741945386
30
0
10
-614.72817095921016
20
-73.834750911951559
30
0
0
SPLINE
5
458
100
AcDbEntity
8
0
100
AcDbSpline
70
0
71
2
72
6
73
3
74
0
42
0.000000001
43
0.0000000001
44
0.0000000001
40
0
40
0
40
0
40
1
40
1
40
1
10
-614.72817095921016
20
-73.834750911951559
30
0
10
-614.88576482055157
20
-74.095519081957733
30
0
10
-615.23448238107585
20
-74.095436490780529
30
0
0
SPLINE
5
459
100
AcDbEntity
8
0
100
AcDbSpline
70
0
71
2
72
6
73
3
74
0
42
0.000000001
43
0.0000000001
44
0.0000000001
40
0
40
0
40
0
40
1
40
1
40
1
10
-615.23448238107585
20
-74.095436490780529
30
0
10
-615.60664363982573
20
-74.09534834713665
30
0
10
-615.96618227444344
20
-73.769988716476703
30
0
0
SPLINE
5
460
100
AcDbEntity
8
0
100
AcDbSpline
70
0
71
2
72
6
73
3
74
0
42
0.000000001
43
0.0000000001
44
0.0000000001
40
0
40
0
40
0
40
1
40
1
40
1
10
-615.96618227444344
20
-73.769988716476703
30
0
10
-616.4170480735346
20
-73.365486459819437
30
0
10
-616.74548172322523
20
-72.398375736220729
30
0
0
SPLINE
5
461
100
AcDbEntity
8
0
100
AcDbSpline
70
0
71
2
72
6
73
3
74
0
42
0.000000001
43
0.0000000001
44
0.0000000001
40
0
40
0
40
0
40
1
40
1
40
1
10
-616.74548172322523
20
-72.398375736220729
30
0
10
-617.02811430843769
20
-71.566073556345259
30
0
10
-616.89968300949261
20
-71.094309355861668
30
0
0
SPLINE
5
462
100
AcDbEntity
8
0
100
AcDbSpline
70
0
71
2
72
6
73
3
74
0
42
0.000000001
43
0.0000000001
44
0.0000000001
40
0
40
0
40
0
40
1
40
1
40
1
10
-616.89968300949261
20
-71.094309355861668
30
0
10
-616.77125171054763
20
-70.622545155378077
30
0
10
-616.25843124267681
20
-70.622666613116166
30
0
0
SPLINE
5
463
100
AcDbEntity
8
0
100
AcDbSpline
70
0
71
2
72
6
73
3
74
0
42
0.000000001
43
0.0000000001
44
0.0000000001
40
0
40
0
40
0
40
1
40
1
40
1
10
-616.25843124267681
20
-70.622666613116166
30
0
10
-615.84817486838006
20
-70.622763779306652
30
0
10
-615.5104420697146
20
-70.896836791798236
30
0
0
SPLINE
5
464
100
AcDbEntity
8
0
100
AcDbSpline
70
0
71
2
72
6
73
3
74
0
42
0.000000001
43
0.0000000001
44
0.0000000001
40
0
40
0
40
0
40
1
40
1
40
1
10
-615.5104420697146
20
-70.896836791798236
30
0
10
-615.17270927076675
20
-71.170908612196953
30
0
10
-614.95268386149246
20
-71.68085105580704
30
0
0
SPLINE
5
465
100
AcDbEntity
8
0
100
AcDbSpline
70
0
71
2
72
6
73
3
74
0
42
0.000000001
43
0.0000000001
44
0.0000000001
40
0
40
0
40
0
40
1
40
1
40
1
10
-614.95268386149246
20
-71.68085105580704
30
0
10
-614.89914155039037
20
-71.80394137135643
30
0
10
-614.81122947018389
20
-71.803962192682974
30
0
0
SPLINE
5
466
100
AcDbEntity
8
0
100
AcDbSpline
70
0
71
2
72
6
73
3
74
0
42
0.000000001
43
0.0000000001
44
0.0000000001
40
0
40
0
40
0
40
1
40
1
40
1
10
-614.81122947018389
20
-71.803962192682974
30
0
10
-614.69694352749696
20
-71.803989260463922
30
0
10
-614.76164217005487
20
-71.613497752603308
30
0
0
SPLINE
5
467
100
AcDbEntity
8
0
100
AcDbSpline
70
0
71
2
72
6
73
3
74
0
42
0.000000001
43
0.0000000001
44
0.0000000001
40
0
40
0
40
0
40
1
40
1
40
1
10
-614.76164217005487
20
-71.613497752603308
30
0
10
-614.85818622546367
20
-71.329225096322574
30
0
10
-615.09062341290587
20
-71.02440791172944
30
0
0
SPLINE
5
468
100
AcDbEntity
8
0
100
AcDbSpline
70
0
71
2
72
6
73
3
74
0
42
0.000000001
43
0.0000000001
44
0.0000000001
40
0
40
0
40
0
40
1
40
1
40
1
10
-615.09062341290587
20
-71.02440791172944
30
0
10
-615.58209160763613
20
-70.379602886775515
30
0
10
-616.43483884524312
20
-70.379400919894039
30
0
0
SPLINE
5
469
100
AcDbEntity
8
0
100
AcDbSpline
70
0
71
2
72
6
73
3
74
0
42
0.000000001
43
0.0000000001
44
0.0000000001
40
0
40
0
40
0
40
1
40
1
40
1
10
-616.43483884524312
20
-70.379400919894039
30
0
10
-617.19674354036556
20
-70.379220468397435
30
0
10
-617.46346836113435
20
-70.913956410562847
30
0
0
SPLINE
5
470
100
AcDbEntity
8
0
100
AcDbSpline
70
0
71
2
72
6
73
3
74
0
42
0.000000001
43
0.0000000001
44
0.0000000001
40
0
40
0
40
0
40
1
40
1
40
1
10
-617.46346836113435
20
-70.913956410562847
30
0
10
-617.73019288359762
20
-71.448691160705977
30
0
10
-617.4207018139158
20
-72.360120697648341
30
0
0
SPLINE
5
471
100
AcDbEntity
8
0
100
AcDbSpline
70
0
71
2
72
6
73
3
74
0
42
0.000000001
43
0.0000000001
44
0.0000000001
40
0
40
0
40
0
40
1
40
1
40
1
10
-617.4207018139158
20
-72.360120697648341
30
0
10
-617.13504935512015
20
-73.201213489970087
30
0
10
-616.47604933224852
20
-73.769867958231941
30
0
0
SPLINE
5
472
100
AcDbEntity
8
0
100
AcDbSpline
70
0
71
2
72
6
73
3
74
0
42
0.000000001
43
0.0000000001
44
0.0000000001
40
0
40
0
40
0
40
1
40
1
40
1
10
-616.47604933224852
20
-73.769867958231941
30
0
10
-615.8170493093769
20
-74.338522426493796
30
0
10
-615.12547421881504
20
-74.338686220943302
30
0
0
SPLINE
5
473
100
AcDbEntity
8
0
100
AcDbSpline
70
0
71
2
72
6
73
3
74
0
42
0.000000001
43
0.0000000001
44
0.0000000001
40
0
40
0
40
0
40
1
40
1
40
1
10
-615.12547421881504
20
-74.338686220943302
30
0
10
-614.7972690001684
20
-74.338763953923916
30
0
10
-614.43299102605499
20
-74.177678074384104
30
0
0
SPLINE
5
474
100
AcDbEntity
8
0
100
AcDbSpline
70
0
71
2
72
6
73
3
74
0
42
0.000000001
43
0.0000000001
44
0.0000000001
40
0
40
0
40
0
40
1
40
1
40
1
10
-614.43299102605499
20
-74.177678074384104
30
0
10
-614.24203696127665
20
-74.092741379724743
30
0
10
-614.09844699185419
20
-74.092775387947881
30
0
0
SPLINE
5
475
100
AcDbEntity
8
0
100
AcDbSpline
70
0
71
2
72
6
73
3
74
0
42
0.000000001
43
0.0000000001
44
0.0000000001
40
0
40
0
40
0
40
1
40
1
40
1
10
-614.09844699185419
20
-74.092775387947881
30
0
10
-613.94313576936543
20
-74.092812172263194
30
0
10
-613.79123260212953
20
-74.177830070124259
30
0
0
LINE
5
476
100
AcDbEntity
8
0
100
AcDbLine
10
-613.79123260212953
20
-74.177830070124259
30
0
11
-613.75326892685382
21
-74.151465197580265
31
0
0
SPLINE
5
477
100
AcDbEntity
8
0
100
AcDbSpline
70
0
71
2
72
6
73
3
74
0
42
0.000000001
43
0.0000000001
44
0.0000000001
40
0
40
0
40
0
40
1
40
1
40
1
10
-614.77526417833451
20
-73.644263573805375
30
0
10
-614.96927073637914
20
-73.858136912745181
30
0
10
-615.2066331145179
20
-73.858080695220011
30
0
0
SPLINE
5
478
100
AcDbEntity
8
0
100
AcDbSpline
70
0
71
2
72
6
73
3
74
0
42
0.000000001
43
0.0000000001
44
0.0000000001
40
0
40
0
40
0
40
1
40
1
40
1
10
-615.2066331145179
20
-73.858080695220011
30
0
10
-615.96560764538538
20
-73.85790093771115
30
0
10
-616.45725194247541
20
-72.410165255038123
30
0
0
SPLINE
5
479
100
AcDbEntity
8
0
100
AcDbSpline
70
0
71
2
72
6
73
3
74
0
42
0.000000001
43
0.0000000001
44
0.0000000001
40
0
40
0
40
0
40
1
40
1
40
1
10
-616.45725194247541
20
-72.410165255038123
30
0
10
-616.68118003432096
20
-71.750771580790826
30
0
10
-616.6541305056511
20
-71.312682643792428
30
0
0
SPLINE
5
480
100
AcDbEntity
8
0
100
AcDbSpline
70
0
71
2
72
6
73
3
74
0
42
0.000000001
43
0.0000000001
44
0.0000000001
40
0
40
0
40
0
40
1
40
1
40
1
10
-616.6541305056511
20
-71.312682643792428
30
0
10
-616.62708067895801
20
-70.874593706864616
30
0
10
-616.35145496054486
20
-70.745721023491797
30
0
0
LINE
5
481
100
AcDbEntity
8
0
100
AcDbLine
10
-616.35145496054486
20
-70.745721023491797
30
0
11
-616.36138381608487
21
-70.716414643536467
31
0
0
SPLINE
5
482
100
AcDbEntity
8
0
100
AcDbSpline
70
0
71
2
72
6
73
3
74
0
42
0.000000001
43
0.0000000001
44
0.0000000001
40
0
40
0
40
0
40
1
40
1
40
1
10
-616.36138381608487
20
-70.716414643536467
30
0
10
-616.68328700363372
20
-70.786668309674184
30
0
10
-616.733144437036
20
-71.248195544329477
30
0
0
SPLINE
5
483
100
AcDbEntity
8
0
100
AcDbSpline
70
0
71
2
72
6
73
3
74
0
42
0.000000001
43
0.0000000001
44
0.0000000001
40
0
40
0
40
0
40
1
40
1
40
1
10
-616.733144437036
20
-71.248195544329477
30
0
10
-616.78300187015589
20
-71.709721586891902
30
0
10
-616.54315077386161
20
-72.416005835419838
30
0
0
SPLINE
5
484
100
AcDbEntity
8
0
100
AcDbSpline
70
0
71
2
72
6
73
3
74
0
42
0.000000001
43
0.0000000001
44
0.0000000001
40
0
40
0
40
0
40
1
40
1
40
1
10
-616.54315077386161
20
-72.416005835419838
30
0
10
-616.02867448994266
20
-73.931146071743257
30
0
10
-615.19644019025975
20
-73.931343180286973
30
0
0
SPLINE
5
485
100
AcDbEntity
8
0
100
AcDbSpline
70
0
71
2
72
6
73
3
74
0
42
0.000000001
43
0.0000000001
44
0.0000000001
40
0
40
0
40
0
40
1
40
1
40
1
10
-615.19644019025975
20
-73.931343180286973
30
0
10
-614.91512117597131
20
-73.931409808616564
30
0
10
-614.76231515147037
20
-73.682361758370462
30
0
0
LINE
5
486
100
AcDbEntity
8
0
100
AcDbLine
10
-614.76231515147037
20
-73.682361758370462
30
0
11
-614.77526417833451
21
-73.644263573805389
31
0
0
SPLINE
5
487
100
AcDbEntity
8
0
100
AcDbSpline
70
0
71
2
72
6
73
3
74
0
42
0.000000001
43
0.0000000001
44
0.0000000001
40
0
40
0
40
0
40
1
40
1
40
1
10
-614.50363333147516
20
-71.631141038699027
30
0
10
-614.79732580796519
20
-70.904331099163301
30
0
10
-615.28519351230375
20
-70.524728264582009
30
0
0
SPLINE
5
488
100
AcDbEntity
8
0
100
AcDbSpline
70
0
71
2
72
6
73
3
74
0
42
0.000000001
43
0.0000000001
44
0.0000000001
40
0
40
0
40
0
40
1
40
1
40
1
10
-615.28519351230375
20
-70.524728264582009
30
0
10
-615.77306181268875
20
-70.145125429859547
30
0
10
-616.41775040086929
20
-70.144972740131649
30
0
0
SPLINE
5
489
100
AcDbEntity
8
0
100
AcDbSpline
70
0
71
2
72
6
73
3
74
0
42
0.000000001
43
0.0000000001
44
0.0000000001
40
0
40
0
40
0
40
1
40
1
40
1
10
-616.41775040086929
20
-70.144972740131649
30
0
10
-616.90712776656096
20
-70.144856834719064
30
0
10
-617.22656718946519
20
-70.446613146996029
30
0
0
LINE
5
490
100
AcDbEntity
8
0
100
AcDbLine
10
-617.22656718946519
20
-70.446613146996029
30
0
11
-617.21860568731142
21
-70.470058732159572
31
0
0
SPLINE
5
491
100
AcDbEntity
8
0
100
AcDbSpline
70
0
71
2
72
6
73
3
74
0
42
0.000000001
43
0.0000000001
44
0.0000000001
40
0
40
0
40
0
40
1
40
1
40
1
10
-617.21860568731142
20
-70.470058732159572
30
0
10
-616.92715548659089
20
-70.22397368318137
30
0
10
-616.39675254307417
20
-70.224099305198877
30
0
0
SPLINE
5
492
100
AcDbEntity
8
0
100
AcDbSpline
70
0
71
2
72
6
73
3
74
0
42
0.000000001
43
0.0000000001
44
0.0000000001
40
0
40
0
40
0
40
1
40
1
40
1
10
-616.39675254307417
20
-70.224099305198877
30
0
10
-615.81653293292106
20
-70.224236725925749
30
0
10
-615.32380988724276
20
-70.596514107317475
30
0
0
SPLINE
5
493
100
AcDbEntity
8
0
100
AcDbSpline
70
0
71
2
72
6
73
3
74
0
42
0.000000001
43
0.0000000001
44
0.0000000001
40
0
40
0
40
0
40
1
40
1
40
1
10
-615.32380988724276
20
-70.596514107317475
30
0
10
-615.0833761974128
20
-70.778256743467352
30
0
10
-614.92175383242522
20
-71.003935564213322
30
0
0
SPLINE
5
494
100
AcDbEntity
8
0
100
AcDbSpline
70
0
71
2
72
6
73
3
74
0
42
0.000000001
43
0.0000000001
44
0.0000000001
40
0
40
0
40
0
40
1
40
1
40
1
10
-614.92175383242522
20
-71.003935564213322
30
0
10
-614.76013146743765
20
-71.229614384959291
30
0
10
-614.60445062507495
20
-71.6018131324888
30
0
0
LINE
5
495
100
AcDbEntity
8
0
100
AcDbLine
10
-614.60445062507495
20
-71.6018131324888
30
0
11
-614.57571211627885
21
-71.669219681101723
31
0
0
LINE
5
496
100
AcDbEntity
8
0
100
AcDbLine
10
-614.57571211627885
20
-71.669219681101723
30
0
11
-614.50363333147516
21
-71.631141038699027
31
0
0
LINE
5
497
100
AcDbEntity
8
0
100
AcDbLine
10
-613.58711806847612
20
-74.010845332172025
30
0
11
-613.63829573340388
21
-73.955155914827557
31
0
0
SPLINE
5
498
100
AcDbEntity
8
0
100
AcDbSpline
70
0
71
2
72
6
73
3
74
0
42
0.000000001
43
0.0000000001
44
0.0000000001
40
0
40
0
40
0
40
1
40
1
40
1
10
-613.63829573340388
20
-73.955155914827557
30
0
10
-614.14279087449233
20
-73.409981143399293
30
0
10
-614.48554191776964
20
-72.961548450354073
30
0
0
LINE
5
499
100
AcDbEntity
8
0
100
AcDbLine
10
-614.48554191776964
20
-72.961548450354073
30
0
11
-614.55171388230053
21
-72.999627895697031
31
0
0
LINE
5
500
100
AcDbEntity
8
0
100
AcDbLine
10
-614.55171388230053
20
-72.999627895697046
30
0
11
-614.49458826206251
21
-73.072901496426226
31
0
0
SPLINE
5
501
100
AcDbEntity
8
0
100
AcDbSpline
70
0
71
2
72
6
73
3
74
0
42
0.000000001
43
0.0000000001
44
0.0000000001
40
0
40
0
40
0
40
1
40
1
40
1
10
-614.49458826206251
20
-73.072901496426212
30
0
10
-614.24360816809212
20
-73.380653237189065
30
0
10
-614.06357374094227
20
-73.582893315201773
30
0
0
LINE
5
502
100
AcDbEntity
8
0
100
AcDbLine
10
-614.06357374094227
20
-73.582893315201773
30
0
11
-613.68780243574679
21
-73.999100232099863
31
0
0
LINE
5
503
100
AcDbEntity
8
0
100
AcDbLine
10
-613.68780243574679
20
-73.999100232099863
30
0
11
-613.64060745498887
21
-74.051857945709216
31
0
0
LINE
5
504
100
AcDbEntity
8
0
100
AcDbLine
10
-613.64060745498887
20
-74.051857945709216
30
0
11
-613.58711806847612
21
-74.010845332172025
31
0
0
LINE
5
505
100
AcDbEntity
8
0
100
AcDbLine
10
-613.23891250497297
20
-74.242429268654874
30
0
11
-611.86162324840564
21
-74.242755469437199
31
0
0
LINE
5
506
100
AcDbEntity
8
0
100
AcDbLine
10
-611.86162324840552
20
-74.242755469437199
30
0
11
-612.39252903657211
21
-73.852886866136103
31
0
0
LINE
5
507
100
AcDbEntity
8
0
100
AcDbLine
10
-612.39252903657211
20
-73.852886866136103
30
0
11
-612.82244896671205
21
-72.586850301537552
31
0
0
SPLINE
5
508
100
AcDbEntity
8
0
100
AcDbSpline
70
0
71
2
72
6
73
3
74
0
42
0.000000001
43
0.0000000001
44
0.0000000001
40
0
40
0
40
0
40
1
40
1
40
1
10
-612.82244896671205
20
-72.586850301537552
30
0
10
-612.75903042663617
20
-72.575144068026276
30
0
10
-612.67015553541989
20
-72.569304192502329
30
0
0
LINE
5
509
100
AcDbEntity
8
0
100
AcDbLine
10
-612.67015553541989
20
-72.569304192502329
30
0
11
-612.24421620734529
21
-73.823617964554415
31
0
0
LINE
5
510
100
AcDbEntity
8
0
100
AcDbLine
10
-612.24421620734529
20
-73.823617964554415
30
0
11
-611.81732224377481
21
-74.140201862475308
31
0
0
LINE
5
511
100
AcDbEntity
8
0
100
AcDbLine
10
-611.81732224377481
20
-74.140201862475308
30
0
11
-611.77665044385526
21
-74.087464959463631
31
0
0
LINE
5
512
100
AcDbEntity
8
0
100
AcDbLine
10
-611.77665044385515
20
-74.087464959463631
30
0
11
-612.17996778244742
21
-73.788467632008178
31
0
0
LINE
5
513
100
AcDbEntity
8
0
100
AcDbLine
10
-612.17996778244742
20
-73.788467632008178
30
0
11
-612.59497133276045
21
-72.566391834905787
31
0
0
LINE
5
514
100
AcDbEntity
8
0
100
AcDbLine
10
-612.59497133276045
20
-72.566391834905787
30
0
11
-612.50124214132722
21
-72.557622348621166
31
0
0
SPLINE
5
515
100
AcDbEntity
8
0
100
AcDbSpline
70
0
71
2
72
6
73
3
74
0
42
0.000000001
43
0.0000000001
44
0.0000000001
40
0
40
0
40
0
40
1
40
1
40
1
10
-612.50124214132722
20
-72.557622348621166
30
0
10
-612.28260208780864
20
-72.537161788873789
30
0
10
-612.07161297610389
20
-72.537211760085697
30
0
0
SPLINE
5
516
100
AcDbEntity
8
0
100
AcDbSpline
70
0
71
2
72
6
73
3
74
0
42
0.000000001
43
0.0000000001
44
0.0000000001
40
0
40
0
40
0
40
1
40
1
40
1
10
-612.07161297610389
20
-72.537211760085697
30
0
10
-611.76685085963629
20
-72.537283940740807
30
0
10
-611.53709620602831
20
-72.566642384811914
30
0
0
LINE
5
517
100
AcDbEntity
8
0
100
AcDbLine
10
-611.53709620602831
20
-72.566642384811914
30
0
11
-611.07931086877397
21
-73.91473611333241
31
0
0
LINE
5
518
100
AcDbEntity
8
0
100
AcDbLine
10
-611.07931086877397
20
-73.91473611333241
30
0
11
-611.32535908230921
21
-74.242882479641963
31
0
0
LINE
5
519
100
AcDbEntity
8
0
100
AcDbLine
10
-611.32535908230921
20
-74.242882479641963
30
0
11
-609.97151352396736
21
-74.243203127957614
31
0
0
LINE
5
520
100
AcDbEntity
8
0
100
AcDbLine
10
-609.97151352396725
20
-74.243203127957614
30
0
11
-610.50828023669033
21
-73.85333313653986
31
0
0
LINE
5
521
100
AcDbEntity
8
0
100
AcDbLine
10
-610.50828023669033
20
-73.85333313653986
30
0
11
-611.54523990423388
21
-70.799607067930054
31
0
0
LINE
5
522
100
AcDbEntity
8
0
100
AcDbLine
10
-611.54523990423399
20
-70.799607067930054
30
0
11
-611.29814125260611
21
-70.483181608086369
31
0
0
LINE
5
523
100
AcDbEntity
8
0
100
AcDbLine
10
-611.29814125260611
20
-70.483181608086369
30
0
11
-612.64612648243804
21
-70.482862347746234
31
0
0
LINE
5
524
100
AcDbEntity
8
0
100
AcDbLine
10
-612.64612648243792
20
-70.482862347746234
30
0
11
-612.12825883441735
21
-70.825842848164854
31
0
0
LINE
5
525
100
AcDbEntity
8
0
100
AcDbLine
10
-612.12825883441735
20
-70.825842848164854
30
0
11
-611.70630070445441
21
-72.06843382752929
31
0
0
SPLINE
5
526
100
AcDbEntity
8
0
100
AcDbSpline
70
0
71
2
72
6
73
3
74
0
42
0.000000001
43
0.0000000001
44
0.0000000001
40
0
40
0
40
0
40
1
40
1
40
1
10
-611.70630070445441
20
-72.06843382752929
30
0
10
-611.97235837410619
20
-72.00976275697785
30
0
10
-612.23316385442411
20
-72.009700987127175
30
0
0
SPLINE
5
527
100
AcDbEntity
8
0
100
AcDbSpline
70
0
71
2
72
6
73
3
74
0
42
0.000000001
43
0.0000000001
44
0.0000000001
40
0
40
0
40
0
40
1
40
1
40
1
10
-612.23316385442411
20
-72.009700987127175
30
0
10
-612.47931791742064
20
-72.009642687356433
30
0
10
-612.73408573309996
20
-72.035955019348989
30
0
0
LINE
5
528
100
AcDbEntity
8
0
100
AcDbLine
10
-612.73408573309996
20
-72.035955019348989
30
0
11
-612.77410498474978
21
-72.038876897597248
31
0
0
LINE
5
529
100
AcDbEntity
8
0
100
AcDbLine
10
-612.77410498474978
20
-72.038876897597248
30
0
11
-613.1950564902321
21
-70.799216321063724
31
0
0
LINE
5
530
100
AcDbEntity
8
0
100
AcDbLine
10
-613.19505649023199
20
-70.799216321063724
30
0
11
-612.90064815417782
21
-70.242509510296344
31
0
0
LINE
5
531
100
AcDbEntity
8
0
100
AcDbLine
10
-612.90064815417793
20
-70.242509510296344
30
0
11
-614.41566705165781
21
-70.242150689266381
31
0
0
LINE
5
532
100
AcDbEntity
8
0
100
AcDbLine
10
-614.41566705165781
20
-70.242150689266381
30
0
11
-614.46499850011764
21
-70.321259405264229
31
0
0
LINE
5
533
100
AcDbEntity
8
0
100
AcDbLine
10
-614.46499850011764
20
-70.321259405264229
30
0
11
-613.03496211463562
21
-70.321598098814235
31
0
0
LINE
5
534
100
AcDbEntity
8
0
100
AcDbLine
10
-613.03496211463562
20
-70.321598098814235
30
0
11
-613.28520237252928
21
-70.758169092528107
31
0
0
LINE
5
535
100
AcDbEntity
8
0
100
AcDbLine
10
-613.2852023725294
20
-70.758169092528107
30
0
11
-612.8274176313214
21
-72.106262820907446
31
0
0
LINE
5
536
100
AcDbEntity
8
0
100
AcDbLine
10
-612.8274176313214
20
-72.106262820907446
30
0
11
-612.74440306875613
21
-72.100422153454446
31
0
0
SPLINE
5
537
100
AcDbEntity
8
0
100
AcDbSpline
70
0
71
2
72
6
73
3
74
0
42
0.000000001
43
0.0000000001
44
0.0000000001
40
0
40
0
40
0
40
1
40
1
40
1
10
-612.74440306875613
20
-72.100422153454446
30
0
10
-612.367564845777
20
-72.071207376423473
30
0
10
-612.19467084961911
20
-72.071248325088789
30
0
0
SPLINE
5
538
100
AcDbEntity
8
0
100
AcDbSpline
70
0
71
2
72
6
73
3
74
0
42
0.000000001
43
0.0000000001
44
0.0000000001
40
0
40
0
40
0
40
1
40
1
40
1
10
-612.19467084961911
20
-72.071248325088789
30
0
10
-611.91335243137712
20
-72.071314953277209
30
0
10
-611.6793960262454
20
-72.147560599490362
30
0
0
LINE
5
539
100
AcDbEntity
8
0
100
AcDbLine
10
-611.6793960262454
20
-72.147560599490362
30
0
11
-611.64356941514154
21
-72.253063944551684
31
0
0
SPLINE
5
540
100
AcDbEntity
8
0
100
AcDbSpline
70
0
71
2
72
6
73
3
74
0
42
0.000000001
43
0.0000000001
44
0.0000000001
40
0
40
0
40
0
40
1
40
1
40
1
10
-611.64356941514154
20
-72.253063944551684
30
0
10
-611.93298255988975
20
-72.211968924991069
30
0
10
-612.2992834901296
20
-72.211882169322692
30
0
0
SPLINE
5
541
100
AcDbEntity
8
0
100
AcDbSpline
70
0
71
2
72
6
73
3
74
0
42
0.000000001
43
0.0000000001
44
0.0000000001
40
0
40
0
40
0
40
1
40
1
40
1
10
-612.2992834901296
20
-72.211882169322692
30
0
10
-612.49562058846652
20
-72.211835668331872
30
0
10
-612.58348885534338
20
-72.220606542733151
30
0
0
LINE
5
542
100
AcDbEntity
8
0
100
AcDbLine
10
-612.58348885534338
20
-72.220606542733151
30
0
11
-612.87049145834192
21
-72.246912432247498
31
0
0
SPLINE
5
543
100
AcDbEntity
8
0
100
AcDbSpline
70
0
71
2
72
6
73
3
74
0
42
0.000000001
43
0.0000000001
44
0.0000000001
40
0
40
0
40
0
40
1
40
1
40
1
10
-612.87049145834192
20
-72.246912432247498
30
0
10
-612.88706701148396
20
-72.249838670869565
30
0
10
-612.93587735180392
20
-72.252757870966974
30
0
0
LINE
5
544
100
AcDbEntity
8
0
100
AcDbLine
10
-612.93587735180392
20
-72.252757870966974
30
0
11
-613.42948870411578
21
-70.799160797526312
31
0
0
LINE
5
545
100
AcDbEntity
8
0
100
AcDbLine
10
-613.42948870411578
20
-70.799160797526312
30
0
11
-613.16187711456382
21
-70.482740196020387
31
0
0
LINE
5
546
100
AcDbEntity
8
0
100
AcDbLine
10
-613.16187711456382
20
-70.482740196020387
30
0
11
-614.51572386499856
21
-70.482419547422396
31
0
0
LINE
5
547
100
AcDbEntity
8
0
100
AcDbLine
10
-614.51572386499856
20
-70.482419547422396
30
0
11
-614.00664730578933
21
-70.825397965736613
31
0
0
LINE
5
548
100
AcDbEntity
8
0
100
AcDbLine
10
-614.00664730578933
20
-70.825397965736599
30
0
11
-613.57174014882105
21
-72.106086533619688
31
0
0
SPLINE
5
549
100
AcDbEntity
8
0
100
AcDbSpline
70
0
71
2
72
6
73
3
74
0
42
0.000000001
43
0.0000000001
44
0.0000000001
40
0
40
0
40
0
40
1
40
1
40
1
10
-613.57174014882105
20
-72.106086533619688
30
0
10
-613.81789361577125
20
-72.106028233990102
30
0
10
-614.03007312091199
20
-71.912571631957704
30
0
0
LINE
5
550
100
AcDbEntity
8
0
100
AcDbLine
10
-614.03007312091199
20
-71.912571631957704
30
0
11
-614.08168278112112
21
-71.941863436970351
31
0
0
SPLINE
5
551
100
AcDbEntity
8
0
100
AcDbSpline
70
0
71
2
72
6
73
3
74
0
42
0.000000001
43
0.0000000001
44
0.0000000001
40
0
40
0
40
0
40
1
40
1
40
1
10
-614.08168278112112
20
-71.941863436970351
30
0
10
-613.83905910252975
20
-72.15584078460148
30
0
10
-613.54684871957352
20
-72.179352499918934
30
0
0
LINE
5
552
100
AcDbEntity
8
0
100
AcDbLine
10
-613.54684871957352
20
-72.179352499918934
30
0
11
-613.51001548413001
21
-72.287786843857603
31
0
0
SPLINE
5
553
100
AcDbEntity
8
0
100
AcDbSpline
70
0
71
2
72
6
73
3
74
0
42
0.000000001
43
0.0000000001
44
0.0000000001
40
0
40
0
40
0
40
1
40
1
40
1
10
-613.51001548413012
20
-72.287786843857603
30
0
10
-613.83822070277677
20
-72.287709110876989
30
0
10
-614.11329912577037
20
-72.03855971936153
30
0
0
LINE
5
554
100
AcDbEntity
8
0
100
AcDbLine
10
-614.11329912577037
20
-72.03855971936153
30
0
11
-614.14732601231037
21
-72.06785568872418
31
0
0
SPLINE
5
555
100
AcDbEntity
8
0
100
AcDbSpline
70
0
71
2
72
6
73
3
74
0
42
0.000000001
43
0.0000000001
44
0.0000000001
40
0
40
0
40
0
40
1
40
1
40
1
10
-614.14732601231037
20
-72.06785568872418
30
0
10
-613.83112616735991
20
-72.489908229354342
30
0
10
-613.41548408135384
20
-72.56619750252483
30
0
0
LINE
5
556
100
AcDbEntity
8
0
100
AcDbLine
10
-613.41548408135384
20
-72.56619750252483
30
0
11
-612.96767438928418
21
-73.884984840008229
31
0
0
LINE
5
557
100
AcDbEntity
8
0
100
AcDbLine
10
-612.96767438928418
20
-73.884984840008215
30
0
11
-613.23891250497286
21
-74.242429268654874
31
0
0
LINE
5
558
100
AcDbEntity
8
0
100
AcDbLine
10
-609.90416671036917
20
-74.079116758047405
30
0
11
-610.30157990712178
21
-73.788912514295262
31
0
0
LINE
5
559
100
AcDbEntity
8
0
100
AcDbLine
10
-610.30157990712189
20
-73.788912514295262
30
0
11
-611.31666861490658
21
-70.799661203350809
31
0
0
LINE
5
560
100
AcDbEntity
8
0
100
AcDbLine
10
-611.31666861490646
20
-70.799661203350809
30
0
11
-611.01933011459744
21
-70.242955086571172
31
0
0
LINE
5
561
100
AcDbEntity
8
0
100
AcDbLine
10
-611.01933011459744
20
-70.242955086571172
30
0
11
-612.54020874454079
21
-70.242594877706892
31
0
0
LINE
5
562
100
AcDbEntity
8
0
100
AcDbLine
10
-612.54020874454091
20
-70.242594877706892
30
0
11
-612.58661002874578
21
-70.321704287692484
31
0
0
LINE
5
563
100
AcDbEntity
8
0
100
AcDbLine
10
-612.58661002874578
20
-70.321704287692484
30
0
11
-611.15950440356517
21
-70.322042287113575
31
0
0
LINE
5
564
100
AcDbEntity
8
0
100
AcDbLine
10
-611.15950440356517
20
-70.322042287113561
30
0
11
-611.40187108426983
21
-70.764476666557627
31
0
0
LINE
5
565
100
AcDbEntity
8
0
100
AcDbLine
10
-611.40187108426983
20
-70.764476666557641
30
0
11
-610.36491082039743
21
-73.818201543215736
31
0
0
LINE
5
566
100
AcDbEntity
8
0
100
AcDbLine
10
-610.36491082039743
20
-73.818201543215736
30
0
11
-609.9301426835915
21
-74.140648827007979
31
0
0
LINE
5
567
100
AcDbEntity
8
0
100
AcDbLine
10
-609.9301426835915
20
-74.140648827007979
30
0
11
-609.90416671036917
21
-74.079116758047405
31
0
0
LINE
5
568
100
AcDbEntity
8
0
100
AcDbLine
10
-606.82719097841346
20
-74.243947837516146
30
0
11
-607.24940797775457
21
-73.898061018920401
31
0
0
LINE
5
569
100
AcDbEntity
8
0
100
AcDbLine
10
-607.24940797775457
20
-73.898061018920401
30
0
11
-607.20272342531337
21
-72.620416080847633
31
0
0
LINE
5
570
100
AcDbEntity
8
0
100
AcDbLine
10
-607.20272342531337
20
-72.620416080847633
30
0
11
-607.06359046289606
21
-72.684918015105282
31
0
0
LINE
5
571
100
AcDbEntity
8
0
100
AcDbLine
10
-607.06359046289606
20
-72.684918015105268
30
0
11
-607.10520927310961
21
-73.839487114559432
31
0
0
LINE
5
572
100
AcDbEntity
8
0
100
AcDbLine
10
-607.10520927310961
20
-73.839487114559432
30
0
11
-606.67315074714691
21
-74.197098113818328
31
0
0
LINE
5
573
100
AcDbEntity
8
0
100
AcDbLine
10
-606.67315074714691
20
-74.197098113818328
30
0
11
-606.60789629409715
21
-74.164879376054699
31
0
0
LINE
5
574
100
AcDbEntity
8
0
100
AcDbLine
10
-606.60789629409715
20
-74.164879376054699
30
0
11
-607.02031498395854
21
-73.821924446489021
31
0
0
LINE
5
575
100
AcDbEntity
8
0
100
AcDbLine
10
-607.02031498395854
20
-73.821924446489021
30
0
11
-606.98127374841181
21
-72.728893553779685
31
0
0
SPLINE
5
576
100
AcDbEntity
8
0
100
AcDbSpline
70
0
71
2
72
6
73
3
74
0
42
0.000000001
43
0.0000000001
44
0.0000000001
40
0
40
0
40
0
40
1
40
1
40
1
10
-606.9812737484117
20
-72.728893553779685
30
0
10
-606.93714156441388
20
-72.7552772740748
30
0
10
-606.92931328661246
20
-72.761140053029692
30
0
0
LINE
5
577
100
AcDbEntity
8
0
100
AcDbLine
10
-606.92931328661246
20
-72.761140053029692
30
0
11
-606.80474471062132
21
-72.84322071642903
31
0
0
SPLINE
5
578
100
AcDbEntity
8
0
100
AcDbSpline
70
0
71
2
72
6
73
3
74
0
42
0.000000001
43
0.0000000001
44
0.0000000001
40
0
40
0
40
0
40
1
40
1
40
1
10
-606.80474471062132
20
-72.84322071642903
30
0
10
-606.69294782564805
20
-72.913577101223893
30
0
10
-606.65952967433054
20
-72.942889044445337
30
0
0
SPLINE
5
579
100
AcDbEntity
8
0
100
AcDbSpline
70
0
71
2
72
6
73
3
74
0
42
0.000000001
43
0.0000000001
44
0.0000000001
40
0
40
0
40
0
40
1
40
1
40
1
10
-606.65952967433054
20
-72.942889044445337
30
0
10
-606.69681312771638
20
-72.60881405219267
30
0
10
-606.62811472510998
20
-72.345094067488219
30
0
0
SPLINE
5
580
100
AcDbEntity
8
0
100
AcDbSpline
70
0
71
2
72
6
73
3
74
0
42
0.000000001
43
0.0000000001
44
0.0000000001
40
0
40
0
40
0
40
1
40
1
40
1
10
-606.62811472510998
20
-72.345094067488219
30
0
10
-606.7111298838629
20
-72.350935330846497
30
0
10
-606.7492255954561
20
-72.350926308158733
30
0
0
SPLINE
5
581
100
AcDbEntity
8
0
100
AcDbSpline
70
0
71
2
72
6
73
3
74
0
42
0.000000001
43
0.0000000001
44
0.0000000001
40
0
40
0
40
0
40
1
40
1
40
1
10
-606.7492255954561
20
-72.350926308158733
30
0
10
-607.02761265735035
20
-72.350860374240384
30
0
10
-607.18638337362336
20
-72.262910685431748
30
0
0
LINE
5
582
100
AcDbEntity
8
0
100
AcDbLine
10
-607.18638337362336
20
-72.262910685431748
30
0
11
-607.1446054500833
21
-70.824093025220662
31
0
0
LINE
5
583
100
AcDbEntity
8
0
100
AcDbLine
10
-607.1446054500833
20
-70.824093025220662
30
0
11
-606.820485490588
21
-70.484242107763976
31
0
0
LINE
5
584
100
AcDbEntity
8
0
100
AcDbLine
10
-606.820485490588
20
-70.484242107763976
30
0
11
-608.30033884072964
21
-70.483891615434032
31
0
0
LINE
5
585
100
AcDbEntity
8
0
100
AcDbLine
10
-608.30033884072964
20
-70.483891615434032
30
0
11
-607.78050235340595
21
-70.823942417738351
31
0
0
LINE
5
586
100
AcDbEntity
8
0
100
AcDbLine
10
-607.78050235340606
20
-70.823942417738351
30
0
11
-607.81518272396147
21
-71.679611355786363
31
0
0
SPLINE
5
587
100
AcDbEntity
8
0
100
AcDbSpline
70
0
71
2
72
6
73
3
74
0
42
0.000000001
43
0.0000000001
44
0.0000000001
40
0
40
0
40
0
40
1
40
1
40
1
10
-607.81518272396147
20
-71.679611355786363
30
0
10
-608.24802732099306
20
-71.354234363150951
30
0
10
-608.52043935042673
20
-71.061129560582202
30
0
0
LINE
5
588
100
AcDbEntity
8
0
100
AcDbLine
10
-608.52043935042673
20
-71.061129560582202
30
0
11
-608.58184464168232
21
-71.078697195801723
31
0
0
SPLINE
5
589
100
AcDbEntity
8
0
100
AcDbSpline
70
0
71
2
72
6
73
3
74
0
42
0.000000001
43
0.0000000001
44
0.0000000001
40
0
40
0
40
0
40
1
40
1
40
1
10
-608.58184464168244
20
-71.078697195801723
30
0
10
-608.31144586121013
20
-71.365941192708661
30
0
10
-607.84815976873767
20
-71.720629423566578
30
0
0
LINE
5
590
100
AcDbEntity
8
0
100
AcDbLine
10
-607.84815976873767
20
-71.720629423566578
30
0
11
-607.81474161742017
21
-71.749941366788022
31
0
0
LINE
5
591
100
AcDbEntity
8
0
100
AcDbLine
10
-607.81474161742017
20
-71.749941366788022
30
0
11
-607.82663109521411
21
-71.87887651414043
31
0
0
SPLINE
5
592
100
AcDbEntity
8
0
100
AcDbSpline
70
0
71
2
72
6
73
3
74
0
42
0.000000001
43
0.0000000001
44
0.0000000001
40
0
40
0
40
0
40
1
40
1
40
1
10
-607.82663109521411
20
-71.87887651414043
30
0
10
-608.27390715220156
20
-71.588660460738339
30
0
10
-608.63283645555032
20
-71.204692917635469
30
0
0
LINE
5
593
100
AcDbEntity
8
0
100
AcDbLine
10
-608.63283645555032
20
-71.204692917635469
30
0
11
-608.65671155315204
21
-71.289669183713499
31
0
0
SPLINE
5
594
100
AcDbEntity
8
0
100
AcDbSpline
70
0
71
2
72
6
73
3
74
0
42
0.000000001
43
0.0000000001
44
0.0000000001
40
0
40
0
40
0
40
1
40
1
40
1
10
-608.65671155315204
20
-71.289669183713499
30
0
10
-608.7265030148053
20
-71.532875374413734
30
0
10
-608.85835410468803
20
-71.843466608859146
30
0
0
LINE
5
595
100
AcDbEntity
8
0
100
AcDbLine
10
-608.85835410468803
20
-71.843466608859146
30
0
11
-608.87571572918125
21
-71.878628046197562
31
0
0
SPLINE
5
596
100
AcDbEntity
8
0
100
AcDbSpline
70
0
71
2
72
6
73
3
74
0
42
0.000000001
43
0.0000000001
44
0.0000000001
40
0
40
0
40
0
40
1
40
1
40
1
10
-608.87571572918137
20
-71.878628046197562
30
0
10
-609.2715673811141
20
-71.3774356447922
30
0
10
-609.37804118613269
20
-71.063856608344381
30
0
0
SPLINE
5
597
100
AcDbEntity
8
0
100
AcDbSpline
70
0
71
2
72
6
73
3
74
0
42
0.000000001
43
0.0000000001
44
0.0000000001
40
0
40
0
40
0
40
1
40
1
40
1
10
-609.37804118613269
20
-71.063856608344381
30
0
10
-609.44072657972913
20
-70.879225906145592
30
0
10
-609.42100778329336
20
-70.751758887412024
30
0
0
SPLINE
5
598
100
AcDbEntity
8
0
100
AcDbSpline
70
0
71
2
72
6
73
3
74
0
42
0.000000001
43
0.0000000001
44
0.0000000001
40
0
40
0
40
0
40
1
40
1
40
1
10
-609.42100778329336
20
-70.751758887412024
30
0
10
-609.4012889865752
20
-70.624290676585616
30
0
10
-609.26252772641863
20
-70.325422928533271
30
0
0
SPLINE
5
599
100
AcDbEntity
8
0
100
AcDbSpline
70
0
71
2
72
6
73
3
74
0
42
0.000000001
43
0.0000000001
44
0.0000000001
40
0
40
0
40
0
40
1
40
1
40
1
10
-609.26252772641863
20
-70.325422928533271
30
0
10
-609.25098202105926
20
-70.299051799088332
30
0
10
-609.22592296313053
20
-70.243379841801811
30
0
0
LINE
5
600
100
AcDbEntity
8
0
100
AcDbLine
10
-609.22592296313053
20
-70.243379841801811
30
0
11
-610.80834100289269
21
-70.24300505778308
31
0
0
LINE
5
601
100
AcDbEntity
8
0
100
AcDbLine
10
-610.80834100289269
20
-70.24300505778308
30
0
11
-610.8400908697763
21
-70.322117937848589
31
0
0
LINE
5
602
100
AcDbEntity
8
0
100
AcDbLine
10
-610.8400908697763
20
-70.322117937848603
30
0
11
-609.34851507447559
21
-70.322471206553047
31
0
0
LINE
5
603
100
AcDbEntity
8
0
100
AcDbLine
10
-609.34851507447559
20
-70.322471206553047
30
0
11
-609.37742240432806
21
-70.384003773336403
31
0
0
SPLINE
5
604
100
AcDbEntity
8
0
100
AcDbSpline
70
0
71
2
72
6
73
3
74
0
42
0.000000001
43
0.0000000001
44
0.0000000001
40
0
40
0
40
0
40
1
40
1
40
1
10
-609.37742240432806
20
-70.384003773336417
30
0
10
-609.49121431574304
20
-70.618409049597261
30
0
10
-609.50699513163261
20
-70.74880835752468
30
0
0
SPLINE
5
605
100
AcDbEntity
8
0
100
AcDbSpline
70
0
71
2
72
6
73
3
74
0
42
0.000000001
43
0.0000000001
44
0.0000000001
40
0
40
0
40
0
40
1
40
1
40
1
10
-609.50699513163261
20
-70.74880835752468
30
0
10
-609.52277833142568
20
-70.87920647279455
30
0
10
-609.46306631936727
20
-71.055044785418957
30
0
0
SPLINE
5
606
100
AcDbEntity
8
0
100
AcDbSpline
70
0
71
2
72
6
73
3
74
0
42
0.000000001
43
0.0000000001
44
0.0000000001
40
0
40
0
40
0
40
1
40
1
40
1
10
-609.46306631936727
20
-71.055044785418957
30
0
10
-609.36158033694119
20
-71.353970626348215
30
0
10
-608.91730712268657
20
-71.946016745599934
30
0
0
LINE
5
607
100
AcDbEntity
8
0
100
AcDbLine
10
-608.91730712268657
20
-71.946016745599934
30
0
11
-609.00048871816887
21
-72.080796528872725
31
0
0
SPLINE
5
608
100
AcDbEntity
8
0
100
AcDbSpline
70
0
71
2
72
6
73
3
74
0
42
0.000000001
43
0.0000000001
44
0.0000000001
40
0
40
0
40
0
40
1
40
1
40
1
10
-609.00048871816898
20
-72.080796528872725
30
0
10
-609.07042924656673
20
-71.987006357906012
30
0
10
-609.19071606943578
20
-71.805293369746636
30
0
0
LINE
5
609
100
AcDbEntity
8
0
100
AcDbLine
10
-609.19071606943578
20
-71.805293369746636
30
0
11
-609.3889523085478
21
-71.506344614234052
31
0
0
SPLINE
5
610
100
AcDbEntity
8
0
100
AcDbSpline
70
0
71
2
72
6
73
3
74
0
42
0.000000001
43
0.0000000001
44
0.0000000001
40
0
40
0
40
0
40
1
40
1
40
1
10
-609.3889523085478
20
-71.506344614234052
30
0
10
-609.54965507994973
20
-71.266013997097403
30
0
10
-609.60341794446367
20
-71.107759272093602
30
0
0
SPLINE
5
611
100
AcDbEntity
8
0
100
AcDbSpline
70
0
71
2
72
6
73
3
74
0
42
0.000000001
43
0.0000000001
44
0.0000000001
40
0
40
0
40
0
40
1
40
1
40
1
10
-609.60341794446367
20
-71.107759272093602
30
0
10
-609.65914756631742
20
-70.943643752439186
30
0
10
-609.64028085882694
20
-70.835222600620369
30
0
0
SPLINE
5
612
100
AcDbEntity
8
0
100
AcDbSpline
70
0
71
2
72
6
73
3
74
0
42
0.000000001
43
0.0000000001
44
0.0000000001
40
0
40
0
40
0
40
1
40
1
40
1
10
-609.64028085882694
20
-70.835222600620369
30
0
10
-609.62141415161875
20
-70.726802640894419
30
0
10
-609.50635065293523
20
-70.539283872787863
30
0
0
SPLINE
5
613
100
AcDbEntity
8
0
100
AcDbSpline
70
0
71
2
72
6
73
3
74
0
42
0.000000001
43
0.0000000001
44
0.0000000001
40
0
40
0
40
0
40
1
40
1
40
1
10
-609.50635065293523
20
-70.539283872787863
30
0
10
-609.49476292238569
20
-70.521704438647234
30
0
10
-609.47249991014871
20
-70.483613997746943
30
0
0
LINE
5
614
100
AcDbEntity
8
0
100
AcDbLine
10
-609.47249991014871
20
-70.483613997746943
30
0
11
-610.93770184296898
21
-70.483266975496917
31
0
0
SPLINE
5
615
100
AcDbEntity
8
0
100
AcDbSpline
70
0
71
2
72
6
73
3
74
0
42
0.000000001
43
0.0000000001
44
0.0000000001
40
0
40
0
40
0
40
1
40
1
40
1
10
-610.93770184296898
20
-70.483266975496917
30
0
10
-610.44503380426693
20
-70.700233708706278
30
0
10
-610.07593476482816
20
-71.066621481827013
30
0
0
SPLINE
5
616
100
AcDbEntity
8
0
100
AcDbSpline
70
0
71
2
72
6
73
3
74
0
42
0.000000001
43
0.0000000001
44
0.0000000001
40
0
40
0
40
0
40
1
40
1
40
1
10
-610.07593476482816
20
-71.066621481827013
30
0
10
-609.70683751352851
20
-71.433009254524237
30
0
10
-609.20683556785525
20
-72.19796377066335
30
0
0
LINE
5
617
100
AcDbEntity
8
0
100
AcDbLine
10
-609.20683556785525
20
-72.19796377066335
30
0
11
-609.18115806725643
21
-72.238994538246246
31
0
0
SPLINE
5
618
100
AcDbEntity
8
0
100
AcDbSpline
70
0
71
2
72
6
73
3
74
0
42
0.000000001
43
0.0000000001
44
0.0000000001
40
0
40
0
40
0
40
1
40
1
40
1
10
-609.18115806725632
20
-72.238994538246246
30
0
10
-609.29167485002995
20
-72.37083708691614
30
0
10
-609.57478596382157
20
-72.400074062520275
30
0
0
SPLINE
5
619
100
AcDbEntity
8
0
100
AcDbSpline
70
0
71
2
72
6
73
3
74
0
42
0.000000001
43
0.0000000001
44
0.0000000001
40
0
40
0
40
0
40
1
40
1
40
1
10
-609.57478596382157
20
-72.400074062520275
30
0
10
-609.33198614133562
20
-72.640424719783255
30
0
10
-609.15553710528479
20
-72.901272005381117
30
0
0
SPLINE
5
620
100
AcDbEntity
8
0
100
AcDbSpline
70
0
71
2
72
6
73
3
74
0
42
0.000000001
43
0.0000000001
44
0.0000000001
40
0
40
0
40
0
40
1
40
1
40
1
10
-609.15553710528479
20
-72.901272005381117
30
0
10
-609.12741376467909
20
-72.863183548502747
30
0
10
-609.1216431450739
20
-72.854393229880415
30
0
0
LINE
5
621
100
AcDbEntity
8
0
100
AcDbLine
10
-609.1216431450739
20
-72.854393229880415
30
0
11
-609.03155018750726
21
-72.731338125375871
31
0
0
SPLINE
5
622
100
AcDbEntity
8
0
100
AcDbSpline
70
0
71
2
72
6
73
3
74
0
42
0.000000001
43
0.0000000001
44
0.0000000001
40
0
40
0
40
0
40
1
40
1
40
1
10
-609.03155018750726
20
-72.731338125375856
30
0
10
-608.98606730465394
20
-72.666879916016867
30
0
10
-608.91517188427201
20
-72.599497561010239
30
0
0
LINE
5
623
100
AcDbEntity
8
0
100
AcDbLine
10
-608.91517188427201
20
-72.599497561010239
30
0
11
-608.81863693998184
21
-72.72845838788578
31
0
0
LINE
5
624
100
AcDbEntity
8
0
100
AcDbLine
10
-608.81863693998184
20
-72.72845838788578
30
0
11
-608.84382684213529
21
-72.757756450222885
31
0
0
SPLINE
5
625
100
AcDbEntity
8
0
100
AcDbSpline
70
0
71
2
72
6
73
3
74
0
42
0.000000001
43
0.0000000001
44
0.0000000001
40
0
40
0
40
0
40
1
40
1
40
1
10
-608.84382684213529
20
-72.757756450222885
30
0
10
-608.94655856424947
20
-72.886669486214586
30
0
10
-609.01933430712245
20
-72.965773245651008
30
0
0
LINE
5
626
100
AcDbEntity
8
0
100
AcDbLine
10
-609.01933430712245
20
-72.965773245651008
30
0
11
-609.0387535898119
21
-72.986281585412186
31
0
0
LINE
5
627
100
AcDbEntity
8
0
100
AcDbLine
10
-609.0387535898119
20
-72.9862815854122
30
0
11
-608.96994933788551
21
-73.050766862834493
31
0
0
SPLINE
5
628
100
AcDbEntity
8
0
100
AcDbSpline
70
0
71
2
72
6
73
3
74
0
42
0.000000001
43
0.0000000001
44
0.0000000001
40
0
40
0
40
0
40
1
40
1
40
1
10
-608.96994933788551
20
-73.050766862834493
30
0
10
-608.84950459378274
20
-72.948231289954606
30
0
10
-608.75166979298103
20
-72.813455573231664
30
0
0
LINE
5
629
100
AcDbEntity
8
0
100
AcDbLine
10
-608.75166979298103
20
-72.813455573231664
30
0
11
-607.98095880423648
21
-73.909609010237091
31
0
0
LINE
5
630
100
AcDbEntity
8
0
100
AcDbLine
10
-607.98095880423637
20
-73.909609010237091
30
0
11
-608.17810756459323
21
-74.243627882905912
31
0
0
LINE
5
631
100
AcDbEntity
8
0
100
AcDbLine
10
-608.17810756459323
20
-74.243627882905912
30
0
11
-606.82719097841346
21
-74.243947837516146
31
0
0
LINE
5
632
100
AcDbEntity
8
0
100
AcDbLine
10
-607.8704666770916
20
-73.303041672820711
30
0
11
-608.48139181001011
21
-72.453080156718883
31
0
0
SPLINE
5
633
100
AcDbEntity
8
0
100
AcDbSpline
70
0
71
2
72
6
73
3
74
0
42
0.000000001
43
0.0000000001
44
0.0000000001
40
0
40
0
40
0
40
1
40
1
40
1
10
-608.48139181001011
20
-72.453080156718869
30
0
10
-608.46499240062167
20
-72.423780012418533
30
0
10
-608.4640301856582
20
-72.417919315426886
30
0
0
LINE
5
634
100
AcDbEntity
8
0
100
AcDbLine
10
-608.4640301856582
20
-72.417919315426886
30
0
11
-608.38968557484475
21
-72.283138631272493
31
0
0
SPLINE
5
635
100
AcDbEntity
8
0
100
AcDbSpline
70
0
71
2
72
6
73
3
74
0
42
0.000000001
43
0.0000000001
44
0.0000000001
40
0
40
0
40
0
40
1
40
1
40
1
10
-608.38968557484475
20
-72.283138631272507
30
0
10
-608.32880901693079
20
-72.177658189642116
30
0
10
-608.25499194750728
20
-71.954965295405643
30
0
0
LINE
5
636
100
AcDbEntity
8
0
100
AcDbLine
10
-608.25499194750728
20
-71.954965295405643
30
0
11
-608.2406037048346
21
-71.911012660585683
31
0
0
SPLINE
5
637
100
AcDbEntity
8
0
100
AcDbSpline
70
0
71
2
72
6
73
3
74
0
42
0.000000001
43
0.0000000001
44
0.0000000001
40
0
40
0
40
0
40
1
40
1
40
1
10
-608.2406037048346
20
-71.911012660585698
30
0
10
-608.06087954014254
20
-72.069297218592595
30
0
10
-607.83523049576183
20
-72.22466129705559
30
0
0
LINE
5
638
100
AcDbEntity
8
0
100
AcDbLine
10
-607.83523049576183
20
-72.22466129705559
30
0
11
-607.8704666770916
21
-73.303041672820711
31
0
0
LINE
5
639
100
AcDbEntity
8
0
100
AcDbLine
10
-607.88689316348916
20
-73.64296427310974
30
0
11
-608.77080555094585
21
-72.411985733063517
31
0
0
SPLINE
5
640
100
AcDbEntity
8
0
100
AcDbSpline
70
0
71
2
72
6
73
3
74
0
42
0.000000001
43
0.0000000001
44
0.0000000001
40
0
40
0
40
0
40
1
40
1
40
1
10
-608.77080555094585
20
-72.411985733063517
30
0
10
-608.62569636383409
20
-72.183448202906675
30
0
10
-608.54015863739073
20
-71.960758084621204
30
0
0
LINE
5
641
100
AcDbEntity
8
0
100
AcDbLine
10
-608.54015863739073
20
-71.960758084621204
30
0
11
-608.46905117881045
21
-71.773228905851369
31
0
0
SPLINE
5
642
100
AcDbEntity
8
0
100
AcDbSpline
70
0
71
2
72
6
73
3
74
0
42
0.000000001
43
0.0000000001
44
0.0000000001
40
0
40
0
40
0
40
1
40
1
40
1
10
-608.46905117881045
20
-71.773228905851369
30
0
10
-608.46712763903622
20
-71.770299197008214
30
0
10
-608.45269617908025
20
-71.735138257774906
30
0
0
SPLINE
5
643
100
AcDbEntity
8
0
100
AcDbSpline
70
0
71
2
72
6
73
3
74
0
42
0.000000001
43
0.0000000001
44
0.0000000001
40
0
40
0
40
0
40
1
40
1
40
1
10
-608.45269617908025
20
-71.735138257774906
30
0
10
-608.41735448798852
20
-71.761520492153196
30
0
10
-608.41245637430097
20
-71.76738198107391
30
0
0
LINE
5
644
100
AcDbEntity
8
0
100
AcDbLine
10
-608.41245637430097
20
-71.76738198107391
30
0
11
-608.35450146571088
21
-71.817213270766246
31
0
0
SPLINE
5
645
100
AcDbEntity
8
0
100
AcDbSpline
70
0
71
2
72
6
73
3
74
0
42
0.000000001
43
0.0000000001
44
0.0000000001
40
0
40
0
40
0
40
1
40
1
40
1
10
-608.35450146571088
20
-71.817213270766246
30
0
10
-608.34172977455194
20
-71.828936953324273
30
0
10
-608.30931824771505
20
-71.855318493714805
30
0
0
SPLINE
5
646
100
AcDbEntity
8
0
100
AcDbSpline
70
0
71
2
72
6
73
3
74
0
42
0.000000001
43
0.0000000001
44
0.0000000001
40
0
40
0
40
0
40
1
40
1
40
1
10
-608.30931824771505
20
-71.855318493714805
30
0
10
-608.40696600536421
20
-72.171779349898316
30
0
10
-608.59292373219557
20
-72.426679877247395
30
0
0
LINE
5
647
100
AcDbEntity
8
0
100
AcDbLine
10
-608.59292373219557
20
-72.426679877247395
30
0
11
-607.88148245687512
21
-73.417325012912414
31
0
0
LINE
5
648
100
AcDbEntity
8
0
100
AcDbLine
10
-607.88148245687512
20
-73.417325012912414
30
0
11
-607.88689316348916
21
-73.64296427310974
31
0
0
SPLINE
5
649
100
AcDbEntity
8
0
100
AcDbSpline
70
0
71
2
72
6
73
3
74
0
42
0.000000001
43
0.0000000001
44
0.0000000001
40
0
40
0
40
0
40
1
40
1
40
1
10
-606.44942337189616
20
-72.802279589559191
30
0
10
-606.47454386962784
20
-72.538537384541527
30
0
10
-606.37287812941054
20
-72.078487502510512
30
0
0
SPLINE
5
650
100
AcDbEntity
8
0
100
AcDbSpline
70
0
71
2
72
6
73
3
74
0
42
0.000000001
43
0.0000000001
44
0.0000000001
40
0
40
0
40
0
40
1
40
1
40
1
10
-606.37287812941054
20
-72.078487502510512
30
0
10
-606.43437312985327
20
-72.087264623225039
30
0
10
-606.44316481471105
20
-72.087262540979452
30
0
0
LINE
5
651
100
AcDbEntity
8
0
100
AcDbLine
10
-606.44316481471105
20
-72.087262540979452
30
0
11
-606.67357261291772
21
-72.107720313623474
31
0
0
SPLINE
5
652
100
AcDbEntity
8
0
100
AcDbSpline
70
0
71
2
72
6
73
3
74
0
42
0.000000001
43
0.0000000001
44
0.0000000001
40
0
40
0
40
0
40
1
40
1
40
1
10
-606.67357261291772
20
-72.107720313623474
30
0
10
-606.82975693737035
20
-72.122335336710051
30
0
10
-606.903017004209
20
-72.12231798560461
30
0
0
SPLINE
5
653
100
AcDbEntity
8
0
100
AcDbSpline
70
0
71
2
72
6
73
3
74
0
42
0.000000001
43
0.0000000001
44
0.0000000001
40
0
40
0
40
0
40
1
40
1
40
1
10
-606.903017004209
20
-72.12231798560461
30
0
10
-606.91473885332186
20
-72.122315209371266
30
0
10
-606.96263168216069
20
-72.119373701889344
30
0
0
LINE
5
654
100
AcDbEntity
8
0
100
AcDbLine
10
-606.96263168216069
20
-72.119373701889344
30
0
11
-606.91411002465281
21
-70.821216259846551
31
0
0
LINE
5
655
100
AcDbEntity
8
0
100
AcDbLine
10
-606.91411002465281
20
-70.821216259846551
30
0
11
-606.45669243662803
21
-70.24403571358755
31
0
0
LINE
5
656
100
AcDbEntity
8
0
100
AcDbLine
10
-606.45669243662803
20
-70.24403571358755
30
0
11
-608.15339582303068
21
-70.243633861929041
31
0
0
LINE
5
657
100
AcDbEntity
8
0
100
AcDbLine
10
-608.15339582303068
20
-70.243633861929027
30
0
11
-608.18221552565933
21
-70.322747435982293
31
0
0
LINE
5
658
100
AcDbEntity
8
0
100
AcDbLine
10
-608.18221552565933
20
-70.322747435982293
30
0
11
-606.62617194442407
21
-70.323115973405436
31
0
0
LINE
5
659
100
AcDbEntity
8
0
100
AcDbLine
10
-606.62617194442407
20
-70.323115973405436
30
0
11
-606.99537570528048
21
-70.78896281987204
31
0
0
LINE
5
660
100
AcDbEntity
8
0
100
AcDbLine
10
-606.99537570528048
20
-70.78896281987204
30
0
11
-607.04826674299306
21
-72.169170983358541
31
0
0
SPLINE
5
661
100
AcDbEntity
8
0
100
AcDbSpline
70
0
71
2
72
6
73
3
74
0
42
0.000000001
43
0.0000000001
44
0.0000000001
40
0
40
0
40
0
40
1
40
1
40
1
10
-607.04826674299306
20
-72.169170983358541
30
0
10
-606.9396637926875
20
-72.195569377031745
30
0
10
-606.81072702872564
20
-72.195599914751455
30
0
0
SPLINE
5
662
100
AcDbEntity
8
0
100
AcDbSpline
70
0
71
2
72
6
73
3
74
0
42
0.000000001
43
0.0000000001
44
0.0000000001
40
0
40
0
40
0
40
1
40
1
40
1
10
-606.81072702872564
20
-72.195599914751455
30
0
10
-606.65248504593546
20
-72.195637393195682
30
0
10
-606.46804653679351
20
-72.169308404226584
30
0
0
LINE
5
663
100
AcDbEntity
8
0
100
AcDbLine
10
-606.46804653679351
20
-72.169308404226584
30
0
11
-606.48133933595113
21
-72.233773641522546
31
0
0
SPLINE
5
664
100
AcDbEntity
8
0
100
AcDbSpline
70
0
71
2
72
6
73
3
74
0
42
0.000000001
43
0.0000000001
44
0.0000000001
40
0
40
0
40
0
40
1
40
1
40
1
10
-606.48133933595113
20
-72.233773641522561
30
0
10
-606.55143046274441
20
-72.579544456623225
30
0
10
-606.52136863404189
20
-72.857939846148255
30
0
0
LINE
5
665
100
AcDbEntity
8
0
100
AcDbLine
10
-606.52136863404189
20
-72.857939846148255
30
0
11
-606.44942337189616
21
-72.802279589559191
31
0
0
LINE
5
666
100
AcDbEntity
8
0
100
AcDbLine
10
-604.99862066379399
20
-74.244380920882122
30
0
11
-603.60960836602101
21
-74.244709898180133
31
0
0
LINE
5
667
100
AcDbEntity
8
0
100
AcDbLine
10
-603.60960836602101
20
-74.244709898180133
30
0
11
-604.13762780326226
21
-73.846050293138973
31
0
0
LINE
5
668
100
AcDbEntity
8
0
100
AcDbLine
10
-604.13762780326226
20
-73.846050293138973
30
0
11
-605.1736279342756
21
-70.795255808300581
31
0
0
LINE
5
669
100
AcDbEntity
8
0
100
AcDbLine
10
-605.1736279342756
20
-70.795255808300595
30
0
11
-604.90986342427209
21
-70.48469462448098
31
0
0
LINE
5
670
100
AcDbEntity
8
0
100
AcDbLine
10
-604.90986342427209
20
-70.48469462448098
30
0
11
-606.27543083172679
21
-70.484371199931999
31
0
0
LINE
5
671
100
AcDbEntity
8
0
100
AcDbLine
10
-606.27543083172679
20
-70.484371199931985
30
0
11
-605.75367080434648
21
-70.821491101300296
31
0
0
LINE
5
672
100
AcDbEntity
8
0
100
AcDbLine
10
-605.75367080434648
20
-70.821491101300296
30
0
11
-604.71570391627574
21
-73.87814757288217
31
0
0
LINE
5
673
100
AcDbEntity
8
0
100
AcDbLine
10
-604.71570391627563
20
-73.87814757288217
30
0
11
-604.99862066379399
21
-74.244380920882122
31
0
0
LINE
5
674
100
AcDbEntity
8
0
100
AcDbLine
10
-603.53447768413866
20
-74.077695207402257
30
0
11
-603.93390412985275
21
-73.781630157988303
31
0
0
LINE
5
675
100
AcDbEntity
8
0
100
AcDbLine
10
-603.93390412985275
20
-73.781630157988303
30
0
11
-604.9479862131567
21
-70.795309249874748
31
0
0
LINE
5
676
100
AcDbEntity
8
0
100
AcDbLine
10
-604.9479862131567
20
-70.795309249874748
30
0
11
-604.64277294328338
21
-70.24446532701478
31
0
0
LINE
5
677
100
AcDbEntity
8
0
100
AcDbLine
10
-604.64277294328338
20
-70.24446532701478
30
0
11
-606.16658352562104
21
-70.24410442373923
31
0
0
LINE
5
678
100
AcDbEntity
8
0
100
AcDbLine
10
-606.16658352562104
20
-70.24410442373923
30
0
11
-606.21298421377946
21
-70.323213833866006
31
0
0
LINE
5
679
100
AcDbEntity
8
0
100
AcDbLine
10
-606.21298421377946
20
-70.323213833865992
30
0
11
-604.78880875285392
21
-70.323551139299326
31
0
0
LINE
5
680
100
AcDbEntity
8
0
100
AcDbLine
10
-604.78880875285392
20
-70.323551139299326
30
0
11
-605.03996592632348
21
-70.765983436780132
31
0
0
LINE
5
681
100
AcDbEntity
8
0
100
AcDbLine
10
-605.03996592632359
20
-70.765983436780147
30
0
11
-604.00698686070405
21
-73.807986116797039
31
0
0
LINE
5
682
100
AcDbEntity
8
0
100
AcDbLine
10
-604.00698686070393
20
-73.807986116797039
30
0
11
-603.5643904460967
21
-74.136296179544189
31
0
0
LINE
5
683
100
AcDbEntity
8
0
100
AcDbLine
10
-603.5643904460967
20
-74.136296179544189
30
0
11
-603.53447768413866
21
-74.077695207402257
31
0
0
SPLINE
5
684
100
AcDbEntity
8
0
100
AcDbSpline
70
0
71
2
72
6
73
3
74
0
42
0.000000001
43
0.0000000001
44
0.0000000001
40
0
40
0
40
0
40
1
40
1
40
1
10
-603.14588082759019
20
-73.893171388069462
30
0
10
-602.31502400603097
20
-74.294834074419398
30
0
10
-601.51502359931533
20
-74.295023548603766
30
0
0
SPLINE
5
685
100
AcDbEntity
8
0
100
AcDbSpline
70
0
71
2
72
6
73
3
74
0
42
0.000000001
43
0.0000000001
44
0.0000000001
40
0
40
0
40
0
40
1
40
1
40
1
10
-601.51502359931533
20
-74.295023548603766
30
0
10
-600.89377751726738
20
-74.295170686147316
30
0
10
-600.58240457456395
20
-74.025646656182744
30
0
0
SPLINE
5
686
100
AcDbEntity
8
0
100
AcDbSpline
70
0
71
2
72
6
73
3
74
0
42
0.000000001
43
0.0000000001
44
0.0000000001
40
0
40
0
40
0
40
1
40
1
40
1
10
-600.58240457456395
20
-74.025646656182744
30
0
10
-600.2710328242357
20
-73.756123818028684
30
0
10
-600.41237012754914
20
-73.339973021137951
30
0
0
SPLINE
5
687
100
AcDbEntity
8
0
100
AcDbSpline
70
0
71
2
72
6
73
3
74
0
42
0.000000001
43
0.0000000001
44
0.0000000001
40
0
40
0
40
0
40
1
40
1
40
1
10
-600.41237012754914
20
-73.339973021137951
30
0
10
-600.52781176132021
20
-73.000018592812694
30
0
10
-600.88061151569377
20
-72.737663861594285
30
0
0
SPLINE
5
688
100
AcDbEntity
8
0
100
AcDbSpline
70
0
71
2
72
6
73
3
74
0
42
0.000000001
43
0.0000000001
44
0.0000000001
40
0
40
0
40
0
40
1
40
1
40
1
10
-600.88061151569377
20
-72.737663861594285
30
0
10
-601.23341127020853
20
-72.475309726422324
30
0
10
-601.73036106203256
20
-72.357975317973015
30
0
0
SPLINE
5
689
100
AcDbEntity
8
0
100
AcDbSpline
70
0
71
2
72
6
73
3
74
0
42
0.000000001
43
0.0000000001
44
0.0000000001
40
0
40
0
40
0
40
1
40
1
40
1
10
-601.73036106203256
20
-72.357975317973015
30
0
10
-601.71727114422049
20
-71.801201879017199
30
0
10
-601.54915172176652
20
-71.273769186033164
30
0
0
SPLINE
5
690
100
AcDbEntity
8
0
100
AcDbSpline
70
0
71
2
72
6
73
3
74
0
42
0.000000001
43
0.0000000001
44
0.0000000001
40
0
40
0
40
0
40
1
40
1
40
1
10
-601.54915172176652
20
-71.273769186033164
30
0
10
-601.38103229931255
20
-70.746336493049128
30
0
10
-601.12785216999873
20
-70.465078022869378
30
0
0
LINE
5
691
100
AcDbEntity
8
0
100
AcDbLine
10
-601.12785216999873
20
-70.465078022869378
30
0
11
-601.1767495410727
21
-70.450414427698746
31
0
0
SPLINE
5
692
100
AcDbEntity
8
0
100
AcDbSpline
70
0
71
2
72
6
73
3
74
0
42
0.000000001
43
0.0000000001
44
0.0000000001
40
0
40
0
40
0
40
1
40
1
40
1
10
-601.17674954107281
20
-70.450414427698746
30
0
10
-601.6641692608257
20
-70.300848679624451
30
0
10
-602.17578077332382
20
-70.028199567454109
30
0
0
LINE
5
693
100
AcDbEntity
8
0
100
AcDbLine
10
-602.17578077332382
20
-70.028199567454109
30
0
11
-602.2296647748974
21
-69.998882777047271
31
0
0
LINE
5
694
100
AcDbEntity
8
0
100
AcDbLine
10
-602.2296647748974
20
-69.998882777047271
30
0
11
-602.21247197146056
21
-70.092660455105133
31
0
0
SPLINE
5
695
100
AcDbEntity
8
0
100
AcDbSpline
70
0
71
2
72
6
73
3
74
0
42
0.000000001
43
0.0000000001
44
0.0000000001
40
0
40
0
40
0
40
1
40
1
40
1
10
-602.21247197146056
20
-70.092660455105133
30
0
10
-602.01489129832737
20
-71.226772672067995
30
0
10
-602.08417169856421
20
-72.015034865338109
30
0
0
LINE
5
696
100
AcDbEntity
8
0
100
AcDbLine
10
-602.08417169856421
20
-72.015034865338109
30
0
11
-602.08591909458494
21
-72.044338479859547
31
0
0
SPLINE
5
697
100
AcDbEntity
8
0
100
AcDbSpline
70
0
71
2
72
6
73
3
74
0
42
0.000000001
43
0.0000000001
44
0.0000000001
40
0
40
0
40
0
40
1
40
1
40
1
10
-602.08591909458494
20
-72.044338479859547
30
0
10
-602.3199631263758
20
-71.950509442190778
30
0
10
-602.6788318800742
20
-71.894747746532218
30
0
0
LINE
5
698
100
AcDbEntity
8
0
100
AcDbLine
10
-602.6788318800742
20
-71.894747746532218
30
0
11
-602.70323690296937
21
-71.891810609870618
31
0
0
LINE
5
699
100
AcDbEntity
8
0
100
AcDbLine
10
-602.70323690296937
20
-71.891810609870618
30
0
11
-603.07545866634109
21
-70.795752744186331
31
0
0
LINE
5
700
100
AcDbEntity
8
0
100
AcDbLine
10
-603.07545866634109
20
-70.795752744186331
30
0
11
-602.74680169824239
21
-70.244914373793037
31
0
0
LINE
5
701
100
AcDbEntity
8
0
100
AcDbLine
10
-602.74680169824239
20
-70.244914373793037
30
0
11
-604.26182059572227
21
-70.244555552763075
31
0
0
LINE
5
702
100
AcDbEntity
8
0
100
AcDbLine
10
-604.26182059572216
20
-70.244555552763075
30
0
11
-604.28184861349303
21
-70.323671209061928
31
0
0
LINE
5
703
100
AcDbEntity
8
0
100
AcDbLine
10
-604.28184861349303
20
-70.323671209061928
30
0
11
-602.8869771793029
21
-70.324001574053085
31
0
0
LINE
5
704
100
AcDbEntity
8
0
100
AcDbLine
10
-602.8869771793029
20
-70.324001574053085
30
0
11
-603.15860347708463
21
-70.7752195168311
31
0
0
LINE
5
705
100
AcDbEntity
8
0
100
AcDbLine
10
-603.15860347708463
20
-70.7752195168311
30
0
11
-602.75755557825755
21
-71.95626732258394
31
0
0
LINE
5
706
100
AcDbEntity
8
0
100
AcDbLine
10
-602.75755557825755
20
-71.95626732258394
30
0
11
-602.69304278690061
21
-71.965074287312788
31
0
0
SPLINE
5
707
100
AcDbEntity
8
0
100
AcDbSpline
70
0
71
2
72
6
73
3
74
0
42
0.000000001
43
0.0000000001
44
0.0000000001
40
0
40
0
40
0
40
1
40
1
40
1
10
-602.69304278690061
20
-71.965074287312788
30
0
10
-602.34703424117311
20
-72.000320594097801
30
0
10
-602.08854107848663
20
-72.097084394688963
30
0
0
SPLINE
5
708
100
AcDbEntity
8
0
100
AcDbSpline
70
0
71
2
72
6
73
3
74
0
42
0.000000001
43
0.0000000001
44
0.0000000001
40
0
40
0
40
0
40
1
40
1
40
1
10
-602.08854107848663
20
-72.097084394688963
30
0
10
-602.09418204595988
20
-72.132248607978383
30
0
10
-602.09413763658381
20
-72.141040303847376
30
0
0
LINE
5
709
100
AcDbEntity
8
0
100
AcDbLine
10
-602.09413763658381
20
-72.141040303847376
30
0
11
-602.09457022777053
21
-72.226020930016887
31
0
0
SPLINE
5
710
100
AcDbEntity
8
0
100
AcDbSpline
70
0
71
2
72
6
73
3
74
0
42
0.000000001
43
0.0000000001
44
0.0000000001
40
0
40
0
40
0
40
1
40
1
40
1
10
-602.09457022777053
20
-72.226020930016887
30
0
10
-602.09452581839446
20
-72.234812625885866
30
0
10
-602.09727983889604
20
-72.261185837576392
30
0
0
SPLINE
5
711
100
AcDbEntity
8
0
100
AcDbSpline
70
0
71
2
72
6
73
3
74
0
42
0.000000001
43
0.0000000001
44
0.0000000001
40
0
40
0
40
0
40
1
40
1
40
1
10
-602.09727983889604
20
-72.261185837576392
30
0
10
-602.29685587760537
20
-72.208390841546631
30
0
10
-602.82179489175428
20
-72.146728292442518
30
0
0
LINE
5
712
100
AcDbEntity
8
0
100
AcDbLine
10
-602.82179489175428
20
-72.146728292442518
30
0
11
-602.85604233170613
21
-72.140859852350772
31
0
0
LINE
5
713
100
AcDbEntity
8
0
100
AcDbLine
10
-602.85604233170625
20
-72.140859852350758
30
0
11
-603.29987201747463
21
-70.833794115179813
31
0
0
LINE
5
714
100
AcDbEntity
8
0
100
AcDbLine
10
-603.29987201747463
20
-70.833794115179813
30
0
11
-603.0842220818148
21
-70.48512701414154
31
0
0
LINE
5
715
100
AcDbEntity
8
0
100
AcDbLine
10
-603.0842220818148
20
-70.485127014141554
30
0
11
-604.3794595866857
21
-70.484820246710257
31
0
0
LINE
5
716
100
AcDbEntity
8
0
100
AcDbLine
10
-604.3794595866857
20
-70.484820246710257
30
0
11
-603.88009222367418
21
-70.83365669431177
31
0
0
LINE
5
717
100
AcDbEntity
8
0
100
AcDbLine
10
-603.88009222367418
20
-70.83365669431177
30
0
11
-603.54570972474482
21
-71.818352197553367
31
0
0
LINE
5
718
100
AcDbEntity
8
0
100
AcDbLine
10
-603.54570972474482
20
-71.818352197553367
30
0
11
-603.57016004716877
21
-71.815415050162926
31
0
0
SPLINE
5
719
100
AcDbEntity
8
0
100
AcDbSpline
70
0
71
2
72
6
73
3
74
0
42
0.000000001
43
0.0000000001
44
0.0000000001
40
0
40
0
40
0
40
1
40
1
40
1
10
-603.57016004716866
20
-71.815415050162926
30
0
10
-603.75307171398401
20
-71.777277207249043
30
0
10
-603.90672376344003
20
-71.730354608908371
30
0
0
LINE
5
720
100
AcDbEntity
8
0
100
AcDbLine
10
-603.90672376344003
20
-71.730354608908371
30
0
11
-603.93314084320366
21
-71.721556666867301
31
0
0
LINE
5
721
100
AcDbEntity
8
0
100
AcDbLine
10
-603.93314084320366
20
-71.721556666867301
30
0
11
-603.93961109902898
21
-71.780163191193566
31
0
0
SPLINE
5
722
100
AcDbEntity
8
0
100
AcDbSpline
70
0
71
2
72
6
73
3
74
0
42
0.000000001
43
0.0000000001
44
0.0000000001
40
0
40
0
40
0
40
1
40
1
40
1
10
-603.93961109902898
20
-71.780163191193566
30
0
10
-603.79374410995013
20
-71.830014110119563
30
0
10
-603.7145348958494
20
-71.847616240938464
30
0
0
LINE
5
723
100
AcDbEntity
8
0
100
AcDbLine
10
-603.7145348958494
20
-71.847616240938464
30
0
11
-603.54627524240175
21
-71.885750613631245
31
0
0
LINE
5
724
100
AcDbEntity
8
0
100
AcDbLine
10
-603.54627524240186
20
-71.885750613631259
30
0
11
-603.52081829521489
21
-71.891616971759746
31
0
0
LINE
5
725
100
AcDbEntity
8
0
100
AcDbLine
10
-603.52081829521489
20
-71.891616971759746
30
0
11
-603.46906867966231
21
-72.044010891101721
31
0
0
SPLINE
5
726
100
AcDbEntity
8
0
100
AcDbSpline
70
0
71
2
72
6
73
3
74
0
42
0.000000001
43
0.0000000001
44
0.0000000001
40
0
40
0
40
0
40
1
40
1
40
1
10
-603.46906867966231
20
-72.044010891101721
30
0
10
-603.6419626758202
20
-72.043969942436405
30
0
10
-603.92573544956497
20
-71.9677124975845
30
0
0
LINE
5
727
100
AcDbEntity
8
0
100
AcDbLine
10
-603.92573544956497
20
-71.9677124975845
30
0
11
-603.96195083866712
21
-71.955982070466931
31
0
0
SPLINE
5
728
100
AcDbEntity
8
0
100
AcDbSpline
70
0
71
2
72
6
73
3
74
0
42
0.000000001
43
0.0000000001
44
0.0000000001
40
0
40
0
40
0
40
1
40
1
40
1
10
-603.96195083866712
20
-71.955982070466931
30
0
10
-603.94213485895352
20
-71.997012641884851
30
0
10
-603.83864414263826
20
-72.146487459211912
30
0
0
SPLINE
5
729
100
AcDbEntity
8
0
100
AcDbSpline
70
0
71
2
72
6
73
3
74
0
42
0.000000001
43
0.0000000001
44
0.0000000001
40
0
40
0
40
0
40
1
40
1
40
1
10
-603.83864414263826
20
-72.146487459211912
30
0
10
-603.82880261601667
20
-72.158211639875049
30
0
10
-603.75282442298021
20
-72.278375912685021
30
0
0
SPLINE
5
730
100
AcDbEntity
8
0
100
AcDbSpline
70
0
71
2
72
6
73
3
74
0
42
0.000000001
43
0.0000000001
44
0.0000000001
40
0
40
0
40
0
40
1
40
1
40
1
10
-603.75282442298021
20
-72.278375912685021
30
0
10
-603.74691968495301
20
-72.287168400483068
30
0
10
-603.73511020903993
20
-72.30475397212561
30
0
0
SPLINE
5
731
100
AcDbEntity
8
0
100
AcDbSpline
70
0
71
2
72
6
73
3
74
0
42
0.000000001
43
0.0000000001
44
0.0000000001
40
0
40
0
40
0
40
1
40
1
40
1
10
-603.73511020903993
20
-72.30475397212561
30
0
10
-603.60621666236125
20
-72.295992814258668
30
0
10
-603.53295659552248
20
-72.296010165364109
30
0
0
SPLINE
5
732
100
AcDbEntity
8
0
100
AcDbSpline
70
0
71
2
72
6
73
3
74
0
42
0.000000001
43
0.0000000001
44
0.0000000001
40
0
40
0
40
0
40
1
40
1
40
1
10
-603.53295659552248
20
-72.296010165364109
30
0
10
-603.4538362001739
20
-72.296028904445052
30
0
10
-603.38346188821424
20
-72.304837257431728
30
0
0
LINE
5
733
100
AcDbEntity
8
0
100
AcDbLine
10
-603.38346188821424
20
-72.304837257431728
30
0
11
-602.89383173387284
21
-73.746710942138321
31
0
0
SPLINE
5
734
100
AcDbEntity
8
0
100
AcDbSpline
70
0
71
2
72
6
73
3
74
0
42
0.000000001
43
0.0000000001
44
0.0000000001
40
0
40
0
40
0
40
1
40
1
40
1
10
-602.89383173387284
20
-73.746710942138321
30
0
10
-603.00076520765174
20
-73.828737372034411
30
0
10
-603.12541170327802
20
-73.884385742772253
30
0
0
LINE
5
735
100
AcDbEntity
8
0
100
AcDbLine
10
-603.12541170327802
20
-73.884385742772253
30
0
11
-603.14588082759019
21
-73.893171388069462
31
0
0
LINE
5
736
100
AcDbEntity
8
0
100
AcDbLine
10
-602.23504694295764
20
-73.969577943757997
30
0
11
-602.771440082352
21
-72.38996353494565
31
0
0
SPLINE
5
737
100
AcDbEntity
8
0
100
AcDbSpline
70
0
71
2
72
6
73
3
74
0
42
0.000000001
43
0.0000000001
44
0.0000000001
40
0
40
0
40
0
40
1
40
1
40
1
10
-602.771440082352
20
-72.38996353494565
30
0
10
-602.68645816640048
20
-72.389983662284422
30
0
10
-602.60528130480736
20
-72.404654902613842
30
0
0
LINE
5
738
100
AcDbEntity
8
0
100
AcDbLine
10
-602.60528130480736
20
-72.404654902613842
30
0
11
-602.11564995851427
21
-73.846529183649196
31
0
0
SPLINE
5
739
100
AcDbEntity
8
0
100
AcDbSpline
70
0
71
2
72
6
73
3
74
0
42
0.000000001
43
0.0000000001
44
0.0000000001
40
0
40
0
40
0
40
1
40
1
40
1
10
-602.11564995851427
20
-73.846529183649196
30
0
10
-601.93956083531361
20
-73.890526931625644
30
0
10
-601.71392030628749
20
-73.890580372917469
30
0
0
SPLINE
5
740
100
AcDbEntity
8
0
100
AcDbSpline
70
0
71
2
72
6
73
3
74
0
42
0.000000001
43
0.0000000001
44
0.0000000001
40
0
40
0
40
0
40
1
40
1
40
1
10
-601.71392030628749
20
-73.890580372917469
30
0
10
-601.14249178494572
20
-73.890715711539926
30
0
10
-601.06474644200011
20
-73.515642680904506
30
0
0
SPLINE
5
741
100
AcDbEntity
8
0
100
AcDbSpline
70
0
71
2
72
6
73
3
74
0
42
0.000000001
43
0.0000000001
44
0.0000000001
40
0
40
0
40
0
40
1
40
1
40
1
10
-601.06474644200011
20
-73.515642680904506
30
0
10
-601.22188565829572
20
-73.691429633918005
30
0
10
-601.36359104769087
20
-73.757330135897078
30
0
0
SPLINE
5
742
100
AcDbEntity
8
0
100
AcDbSpline
70
0
71
2
72
6
73
3
74
0
42
0.000000001
43
0.0000000001
44
0.0000000001
40
0
40
0
40
0
40
1
40
1
40
1
10
-601.36359104769087
20
-73.757330135897078
30
0
10
-601.50529643708614
20
-73.823230637876151
30
0
10
-601.73386713036712
20
-73.823176502596567
30
0
0
SPLINE
5
743
100
AcDbEntity
8
0
100
AcDbSpline
70
0
71
2
72
6
73
3
74
0
42
0.000000001
43
0.0000000001
44
0.0000000001
40
0
40
0
40
0
40
1
40
1
40
1
10
-601.73386713036712
20
-73.823176502596567
30
0
10
-601.91262264712782
20
-73.823134165673409
30
0
10
-602.05936333407578
20
-73.787934457961711
30
0
0
LINE
5
744
100
AcDbEntity
8
0
100
AcDbLine
10
-602.05936333407578
20
-73.787934457961711
30
0
11
-602.52908988162073
21
-72.404672947989368
31
0
0
LINE
5
745
100
AcDbEntity
8
0
100
AcDbLine
10
-602.52908988162085
20
-72.404672947989368
30
0
11
-602.49488893343175
21
-72.410541973116352
31
0
0
SPLINE
5
746
100
AcDbEntity
8
0
100
AcDbSpline
70
0
71
2
72
6
73
3
74
0
42
0.000000001
43
0.0000000001
44
0.0000000001
40
0
40
0
40
0
40
1
40
1
40
1
10
-602.49488893343175
20
-72.410541973116352
30
0
10
-601.88177287628855
20
-72.51618144887037
30
0
10
-601.52477458708699
20
-72.743372817262767
30
0
0
SPLINE
5
747
100
AcDbEntity
8
0
100
AcDbSpline
70
0
71
2
72
6
73
3
74
0
42
0.000000001
43
0.0000000001
44
0.0000000001
40
0
40
0
40
0
40
1
40
1
40
1
10
-601.52477458708699
20
-72.743372817262767
30
0
10
-601.16777748969616
20
-72.97056299327997
30
0
10
-601.04437465165347
20
-73.33396241065175
30
0
0
SPLINE
5
748
100
AcDbEntity
8
0
100
AcDbSpline
70
0
71
2
72
6
73
3
74
0
42
0.000000001
43
0.0000000001
44
0.0000000001
40
0
40
0
40
0
40
1
40
1
40
1
10
-601.04437465165347
20
-73.33396241065175
30
0
10
-600.93391964824082
20
-73.659263047694353
30
0
10
-601.11377810134582
20
-73.871675251345039
30
0
0
SPLINE
5
749
100
AcDbEntity
8
0
100
AcDbSpline
70
0
71
2
72
6
73
3
74
0
42
0.000000001
43
0.0000000001
44
0.0000000001
40
0
40
0
40
0
40
1
40
1
40
1
10
-601.11377810134582
20
-73.871675251345039
30
0
10
-601.29363655416819
20
-74.084086262902872
30
0
10
-601.67751906598448
20
-74.083995343166833
30
0
0
SPLINE
5
750
100
AcDbEntity
8
0
100
AcDbSpline
70
0
71
2
72
6
73
3
74
0
42
0.000000001
43
0.0000000001
44
0.0000000001
40
0
40
0
40
0
40
1
40
1
40
1
10
-601.67751906598448
20
-74.083995343166833
30
0
10
-601.98521134670693
20
-74.083922468523966
30
0
10
-602.23504694295764
20
-73.969577943757997
30
0
0
SPLINE
5
751
100
AcDbEntity
8
0
100
AcDbSpline
70
0
71
2
72
6
73
3
74
0
42
0.000000001
43
0.0000000001
44
0.0000000001
40
0
40
0
40
0
40
1
40
1
40
1
10
-601.41677375058919
20
-72.211529446913985
30
0
10
-601.43714311941449
20
-71.607861876385158
30
0
10
-601.16434137666033
20
-71.030637605227497
30
0
0
SPLINE
5
752
100
AcDbEntity
8
0
100
AcDbSpline
70
0
71
2
72
6
73
3
74
0
42
0.000000001
43
0.0000000001
44
0.0000000001
40
0
40
0
40
0
40
1
40
1
40
1
10
-601.16434137666033
20
-71.030637605227497
30
0
10
-600.99369851496044
20
-70.670237994826067
30
0
10
-600.64289770500648
20
-70.383141124451498
30
0
0
SPLINE
5
753
100
AcDbEntity
8
0
100
AcDbSpline
70
0
71
2
72
6
73
3
74
0
42
0.000000001
43
0.0000000001
44
0.0000000001
40
0
40
0
40
0
40
1
40
1
40
1
10
-600.64289770500648
20
-70.383141124451498
30
0
10
-601.37467760011373
20
-70.204213473096203
30
0
10
-602.08805246207271
20
-69.837744160791075
30
0
0
LINE
5
754
100
AcDbEntity
8
0
100
AcDbLine
10
-602.08805246207271
20
-69.837744160791075
30
0
11
-602.12041957953352
21
-69.820154316269509
31
0
0
LINE
5
755
100
AcDbEntity
8
0
100
AcDbLine
10
-602.12041957953352
20
-69.820154316269523
30
0
11
-602.16310403236821
21
-69.867030413760546
31
0
0
SPLINE
5
756
100
AcDbEntity
8
0
100
AcDbSpline
70
0
71
2
72
6
73
3
74
0
42
0.000000001
43
0.0000000001
44
0.0000000001
40
0
40
0
40
0
40
1
40
1
40
1
10
-602.16310403236821
20
-69.867030413760546
30
0
10
-601.47898789761575
20
-70.233492796352351
30
0
10
-600.78731696306329
20
-70.406550619358057
30
0
0
SPLINE
5
757
100
AcDbEntity
8
0
100
AcDbSpline
70
0
71
2
72
6
73
3
74
0
42
0.000000001
43
0.0000000001
44
0.0000000001
40
0
40
0
40
0
40
1
40
1
40
1
10
-600.78731696306329
20
-70.406550619358057
30
0
10
-601.44019735565064
20
-70.969034049599557
30
0
10
-601.50372242388039
20
-72.205648524924584
30
0
0
LINE
5
758
100
AcDbEntity
8
0
100
AcDbLine
10
-601.50372242388039
20
-72.205648524924584
30
0
11
-601.50437556862016
21
-72.255465337686132
31
0
0
SPLINE
5
759
100
AcDbEntity
8
0
100
AcDbSpline
70
0
71
2
72
6
73
3
74
0
42
0.000000001
43
0.0000000001
44
0.0000000001
40
0
40
0
40
0
40
1
40
1
40
1
10
-601.50437556862016
20
-72.255465337686132
30
0
10
-600.492230955021
20
-72.595631547439098
30
0
10
-600.25539973188654
20
-73.293123395381457
30
0
0
SPLINE
5
760
100
AcDbEntity
8
0
100
AcDbSpline
70
0
71
2
72
6
73
3
74
0
42
0.000000001
43
0.0000000001
44
0.0000000001
40
0
40
0
40
0
40
1
40
1
40
1
10
-600.25539973188654
20
-73.293123395381457
30
0
10
-600.15784726385755
20
-73.580326454916602
30
0
10
-600.27390887166712
20
-73.920225457363415
30
0
0
SPLINE
5
761
100
AcDbEntity
8
0
100
AcDbSpline
70
0
71
2
72
6
73
3
74
0
42
0.000000001
43
0.0000000001
44
0.0000000001
40
0
40
0
40
0
40
1
40
1
40
1
10
-600.27390887166712
20
-73.920225457363415
30
0
10
-600.06949646129556
20
-73.650677286680107
30
0
10
-600.21083257237501
20
-73.234525894025296
30
0
0
SPLINE
5
762
100
AcDbEntity
8
0
100
AcDbSpline
70
0
71
2
72
6
73
3
74
0
42
0.000000001
43
0.0000000001
44
0.0000000001
40
0
40
0
40
0
40
1
40
1
40
1
10
-600.21083257237501
20
-73.234525894025296
30
0
10
-600.43970378333074
20
-72.56047903484712
30
0
10
-601.41677375058919
20
-72.211529446913985
30
0
0
ENDSEC
0
SECTION
2
OBJECTS
0
DICTIONARY
5
C
100
AcDbDictionary
3
ACAD_GROUP
350
D
3
ACAD_MLINESTYLE
350
17
0
DICTIONARY
5
D
100
AcDbDictionary
0
DICTIONARY
5
1A
330
C
100
AcDbDictionary
0
DICTIONARY
5
17
100
AcDbDictionary
0
ENDSEC
0
EOF
